<?xml version="1.0" encoding="UTF-8" standalone="no"?>
<!DOCTYPE svg PUBLIC "-//W3C//DTD SVG 1.1//EN"
 "http://www.w3.org/Graphics/SVG/1.1/DTD/svg11.dtd">
<!-- Generated by graphviz version 2.40.1 (20161225.0304)
 -->
<!-- Title: controllers_diagram Pages: 1 -->
<svg width="743pt" height="702pt"
 viewBox="0.00 0.00 742.85 702.00" xmlns="http://www.w3.org/2000/svg" xmlns:xlink="http://www.w3.org/1999/xlink">
<g id="graph0" class="graph" transform="scale(1 1) rotate(0) translate(4 698)">
<title>controllers_diagram</title>
<polygon fill="transparent" stroke="transparent" points="-4,4 -4,-698 738.8486,-698 738.8486,4 -4,4"/>
<!-- ApplicationController -->
<g id="node1" class="node">
<title>ApplicationController</title>
<path fill="none" stroke="#000000" d="M556,-459.5C556,-459.5 688.7451,-459.5 688.7451,-459.5 694.7451,-459.5 700.7451,-465.5 700.7451,-471.5 700.7451,-471.5 700.7451,-581.5 700.7451,-581.5 700.7451,-587.5 694.7451,-593.5 688.7451,-593.5 688.7451,-593.5 556,-593.5 556,-593.5 550,-593.5 544,-587.5 544,-581.5 544,-581.5 544,-471.5 544,-471.5 544,-465.5 550,-459.5 556,-459.5"/>
<text text-anchor="middle" x="622.3726" y="-578.3" font-family="Times,serif" font-size="14.00" fill="#000000">ApplicationController</text>
<polyline fill="none" stroke="#000000" points="544,-571.5 700.7451,-571.5 "/>
<polyline fill="none" stroke="#000000" points="544,-547.5 700.7451,-547.5 "/>
<polyline fill="none" stroke="#000000" points="544,-523.5 700.7451,-523.5 "/>
<text text-anchor="start" x="552" y="-508.3" font-family="Times,serif" font-size="14.00" fill="#000000">_layout</text>
<text text-anchor="start" x="552" y="-494.3" font-family="Times,serif" font-size="14.00" fill="#000000">not_authenticated</text>
<text text-anchor="start" x="552" y="-480.3" font-family="Times,serif" font-size="14.00" fill="#000000">set_currents</text>
<text text-anchor="start" x="552" y="-466.3" font-family="Times,serif" font-size="14.00" fill="#000000">set_supported_languages</text>
</g>
<!-- Dashboard::BaseController -->
<g id="node2" class="node">
<title>Dashboard::BaseController</title>
<path fill="none" stroke="#000000" d="M12,-425.5C12,-425.5 157.1865,-425.5 157.1865,-425.5 163.1865,-425.5 169.1865,-431.5 169.1865,-437.5 169.1865,-437.5 169.1865,-503.5 169.1865,-503.5 169.1865,-509.5 163.1865,-515.5 157.1865,-515.5 157.1865,-515.5 12,-515.5 12,-515.5 6,-515.5 0,-509.5 0,-503.5 0,-503.5 0,-437.5 0,-437.5 0,-431.5 6,-425.5 12,-425.5"/>
<text text-anchor="middle" x="84.5933" y="-500.3" font-family="Times,serif" font-size="14.00" fill="#000000">Dashboard::BaseController</text>
<polyline fill="none" stroke="#000000" points="0,-493.5 169.1865,-493.5 "/>
<text text-anchor="start" x="8" y="-478.3" font-family="Times,serif" font-size="14.00" fill="#000000">redirect_to_onboard</text>
<polyline fill="none" stroke="#000000" points="0,-471.5 169.1865,-471.5 "/>
<polyline fill="none" stroke="#000000" points="0,-447.5 169.1865,-447.5 "/>
<text text-anchor="start" x="8" y="-432.3" font-family="Times,serif" font-size="14.00" fill="#000000">_layout</text>
</g>
<!-- Dashboard::IndexController -->
<g id="node3" class="node">
<title>Dashboard::IndexController</title>
<path fill="none" stroke="#000000" d="M573,-.5C573,-.5 722.8486,-.5 722.8486,-.5 728.8486,-.5 734.8486,-6.5 734.8486,-12.5 734.8486,-12.5 734.8486,-78.5 734.8486,-78.5 734.8486,-84.5 728.8486,-90.5 722.8486,-90.5 722.8486,-90.5 573,-90.5 573,-90.5 567,-90.5 561,-84.5 561,-78.5 561,-78.5 561,-12.5 561,-12.5 561,-6.5 567,-.5 573,-.5"/>
<text text-anchor="middle" x="647.9243" y="-75.3" font-family="Times,serif" font-size="14.00" fill="#000000">Dashboard::IndexController</text>
<polyline fill="none" stroke="#000000" points="561,-68.5 734.8486,-68.5 "/>
<text text-anchor="start" x="569" y="-53.3" font-family="Times,serif" font-size="14.00" fill="#000000">index</text>
<polyline fill="none" stroke="#000000" points="561,-46.5 734.8486,-46.5 "/>
<polyline fill="none" stroke="#000000" points="561,-22.5 734.8486,-22.5 "/>
<text text-anchor="start" x="569" y="-7.3" font-family="Times,serif" font-size="14.00" fill="#000000">_layout</text>
</g>
<!-- Dashboard::OnboardController -->
<g id="node4" class="node">
<title>Dashboard::OnboardController</title>
<path fill="none" stroke="#000000" d="M216,-391.5C216,-391.5 382.959,-391.5 382.959,-391.5 388.959,-391.5 394.959,-397.5 394.959,-403.5 394.959,-403.5 394.959,-497.5 394.959,-497.5 394.959,-503.5 388.959,-509.5 382.959,-509.5 382.959,-509.5 216,-509.5 216,-509.5 210,-509.5 204,-503.5 204,-497.5 204,-497.5 204,-403.5 204,-403.5 204,-397.5 210,-391.5 216,-391.5"/>
<text text-anchor="middle" x="299.4795" y="-494.3" font-family="Times,serif" font-size="14.00" fill="#000000">Dashboard::OnboardController</text>
<polyline fill="none" stroke="#000000" points="204,-487.5 394.959,-487.5 "/>
<text text-anchor="start" x="212" y="-472.3" font-family="Times,serif" font-size="14.00" fill="#000000">organization</text>
<text text-anchor="start" x="212" y="-458.3" font-family="Times,serif" font-size="14.00" fill="#000000">project</text>
<polyline fill="none" stroke="#000000" points="204,-451.5 394.959,-451.5 "/>
<polyline fill="none" stroke="#000000" points="204,-427.5 394.959,-427.5 "/>
<text text-anchor="start" x="212" y="-412.3" font-family="Times,serif" font-size="14.00" fill="#000000">_layout</text>
<text text-anchor="start" x="212" y="-398.3" font-family="Times,serif" font-size="14.00" fill="#000000">set_onboarding</text>
</g>
<!-- Dashboard::ProjectsController -->
<g id="node5" class="node">
<title>Dashboard::ProjectsController</title>
<path fill="none" stroke="#000000" d="M131,-34.5C131,-34.5 294.0762,-34.5 294.0762,-34.5 300.0762,-34.5 306.0762,-40.5 306.0762,-46.5 306.0762,-46.5 306.0762,-140.5 306.0762,-140.5 306.0762,-146.5 300.0762,-152.5 294.0762,-152.5 294.0762,-152.5 131,-152.5 131,-152.5 125,-152.5 119,-146.5 119,-140.5 119,-140.5 119,-46.5 119,-46.5 119,-40.5 125,-34.5 131,-34.5"/>
<text text-anchor="middle" x="212.5381" y="-137.3" font-family="Times,serif" font-size="14.00" fill="#000000">Dashboard::ProjectsController</text>
<polyline fill="none" stroke="#000000" points="119,-130.5 306.0762,-130.5 "/>
<text text-anchor="start" x="127" y="-115.3" font-family="Times,serif" font-size="14.00" fill="#000000">index</text>
<text text-anchor="start" x="127" y="-101.3" font-family="Times,serif" font-size="14.00" fill="#000000">new</text>
<text text-anchor="start" x="127" y="-87.3" font-family="Times,serif" font-size="14.00" fill="#000000">show</text>
<polyline fill="none" stroke="#000000" points="119,-80.5 306.0762,-80.5 "/>
<polyline fill="none" stroke="#000000" points="119,-56.5 306.0762,-56.5 "/>
<text text-anchor="start" x="127" y="-41.3" font-family="Times,serif" font-size="14.00" fill="#000000">_layout</text>
</g>
<!-- PagesController -->
<g id="node6" class="node">
<title>PagesController</title>
<path fill="none" stroke="#000000" d="M46,-561.5C46,-561.5 128.207,-561.5 128.207,-561.5 134.207,-561.5 140.207,-567.5 140.207,-573.5 140.207,-573.5 140.207,-681.5 140.207,-681.5 140.207,-687.5 134.207,-693.5 128.207,-693.5 128.207,-693.5 46,-693.5 46,-693.5 40,-693.5 34,-687.5 34,-681.5 34,-681.5 34,-573.5 34,-573.5 34,-567.5 40,-561.5 46,-561.5"/>
<text text-anchor="middle" x="87.1035" y="-678.3" font-family="Times,serif" font-size="14.00" fill="#000000">PagesController</text>
<polyline fill="none" stroke="#000000" points="34,-671.5 140.207,-671.5 "/>
<text text-anchor="start" x="42" y="-656.3" font-family="Times,serif" font-size="14.00" fill="#000000">docs</text>
<text text-anchor="start" x="42" y="-642.3" font-family="Times,serif" font-size="14.00" fill="#000000">features</text>
<text text-anchor="start" x="42" y="-628.3" font-family="Times,serif" font-size="14.00" fill="#000000">home</text>
<text text-anchor="start" x="42" y="-614.3" font-family="Times,serif" font-size="14.00" fill="#000000">pricing</text>
<polyline fill="none" stroke="#000000" points="34,-607.5 140.207,-607.5 "/>
<polyline fill="none" stroke="#000000" points="34,-583.5 140.207,-583.5 "/>
<text text-anchor="start" x="42" y="-568.3" font-family="Times,serif" font-size="14.00" fill="#000000">_layout</text>
</g>
<!-- Users::BaseController -->
<g id="node7" class="node">
<title>Users::BaseController</title>
<path fill="none" stroke="#000000" d="M46,-306.5C46,-306.5 162.4209,-306.5 162.4209,-306.5 168.4209,-306.5 174.4209,-312.5 174.4209,-318.5 174.4209,-318.5 174.4209,-386.5 174.4209,-386.5 174.4209,-392.5 168.4209,-398.5 162.4209,-398.5 162.4209,-398.5 46,-398.5 46,-398.5 40,-398.5 34,-392.5 34,-386.5 34,-386.5 34,-318.5 34,-318.5 34,-312.5 40,-306.5 46,-306.5"/>
<text text-anchor="middle" x="104.2104" y="-383.3" font-family="Times,serif" font-size="14.00" fill="#000000">Users::BaseController</text>
<polyline fill="none" stroke="#000000" points="34,-376.5 174.4209,-376.5 "/>
<polyline fill="none" stroke="#000000" points="34,-352.5 174.4209,-352.5 "/>
<polyline fill="none" stroke="#000000" points="34,-328.5 174.4209,-328.5 "/>
<text text-anchor="start" x="42" y="-313.3" font-family="Times,serif" font-size="14.00" fill="#000000">_layout</text>
</g>
<!-- Users::SessionsController -->
<g id="node8" class="node">
<title>Users::SessionsController</title>
<path fill="none" stroke="#000000" d="M369,-544.5C369,-544.5 506.4414,-544.5 506.4414,-544.5 512.4414,-544.5 518.4414,-550.5 518.4414,-556.5 518.4414,-556.5 518.4414,-664.5 518.4414,-664.5 518.4414,-670.5 512.4414,-676.5 506.4414,-676.5 506.4414,-676.5 369,-676.5 369,-676.5 363,-676.5 357,-670.5 357,-664.5 357,-664.5 357,-556.5 357,-556.5 357,-550.5 363,-544.5 369,-544.5"/>
<text text-anchor="middle" x="437.7207" y="-661.3" font-family="Times,serif" font-size="14.00" fill="#000000">Users::SessionsController</text>
<polyline fill="none" stroke="#000000" points="357,-654.5 518.4414,-654.5 "/>
<text text-anchor="start" x="365" y="-639.3" font-family="Times,serif" font-size="14.00" fill="#000000">create</text>
<text text-anchor="start" x="365" y="-625.3" font-family="Times,serif" font-size="14.00" fill="#000000">destroy</text>
<text text-anchor="start" x="365" y="-611.3" font-family="Times,serif" font-size="14.00" fill="#000000">index</text>
<text text-anchor="start" x="365" y="-597.3" font-family="Times,serif" font-size="14.00" fill="#000000">new</text>
<polyline fill="none" stroke="#000000" points="357,-590.5 518.4414,-590.5 "/>
<polyline fill="none" stroke="#000000" points="357,-566.5 518.4414,-566.5 "/>
<text text-anchor="start" x="365" y="-551.3" font-family="Times,serif" font-size="14.00" fill="#000000">_layout</text>
</g>
<!-- Users::SignupsController -->
<g id="node9" class="node">
<title>Users::SignupsController</title>
<path fill="none" stroke="#000000" d="M182,-544.5C182,-544.5 316.3311,-544.5 316.3311,-544.5 322.3311,-544.5 328.3311,-550.5 328.3311,-556.5 328.3311,-556.5 328.3311,-664.5 328.3311,-664.5 328.3311,-670.5 322.3311,-676.5 316.3311,-676.5 316.3311,-676.5 182,-676.5 182,-676.5 176,-676.5 170,-670.5 170,-664.5 170,-664.5 170,-556.5 170,-556.5 170,-550.5 176,-544.5 182,-544.5"/>
<text text-anchor="middle" x="249.1655" y="-661.3" font-family="Times,serif" font-size="14.00" fill="#000000">Users::SignupsController</text>
<polyline fill="none" stroke="#000000" points="170,-654.5 328.3311,-654.5 "/>
<text text-anchor="start" x="178" y="-639.3" font-family="Times,serif" font-size="14.00" fill="#000000">create</text>
<text text-anchor="start" x="178" y="-625.3" font-family="Times,serif" font-size="14.00" fill="#000000">index</text>
<text text-anchor="start" x="178" y="-611.3" font-family="Times,serif" font-size="14.00" fill="#000000">new</text>
<polyline fill="none" stroke="#000000" points="170,-604.5 328.3311,-604.5 "/>
<polyline fill="none" stroke="#000000" points="170,-580.5 328.3311,-580.5 "/>
<text text-anchor="start" x="178" y="-565.3" font-family="Times,serif" font-size="14.00" fill="#000000">_layout</text>
<text text-anchor="start" x="178" y="-551.3" font-family="Times,serif" font-size="14.00" fill="#000000">user_params</text>
</g>
<!-- ActiveStorage::BlobsController -->
<g id="node10" class="node">
<title>ActiveStorage::BlobsController</title>
<path fill="none" stroke="#000000" d="M352,-.5C352,-.5 522.083,-.5 522.083,-.5 528.083,-.5 534.083,-6.5 534.083,-12.5 534.083,-12.5 534.083,-78.5 534.083,-78.5 534.083,-84.5 528.083,-90.5 522.083,-90.5 522.083,-90.5 352,-90.5 352,-90.5 346,-90.5 340,-84.5 340,-78.5 340,-78.5 340,-12.5 340,-12.5 340,-6.5 346,-.5 352,-.5"/>
<text text-anchor="middle" x="437.0415" y="-75.3" font-family="Times,serif" font-size="14.00" fill="#000000">ActiveStorage::BlobsController</text>
<polyline fill="none" stroke="#000000" points="340,-68.5 534.083,-68.5 "/>
<text text-anchor="start" x="348" y="-53.3" font-family="Times,serif" font-size="14.00" fill="#000000">show</text>
<polyline fill="none" stroke="#000000" points="340,-46.5 534.083,-46.5 "/>
<polyline fill="none" stroke="#000000" points="340,-22.5 534.083,-22.5 "/>
<text text-anchor="start" x="348" y="-7.3" font-family="Times,serif" font-size="14.00" fill="#000000">_layout</text>
</g>
<!-- ActiveStorage::DirectUploadsController -->
<g id="node11" class="node">
<title>ActiveStorage::DirectUploadsController</title>
<path fill="none" stroke="#000000" d="M216,-187.5C216,-187.5 435.0488,-187.5 435.0488,-187.5 441.0488,-187.5 447.0488,-193.5 447.0488,-199.5 447.0488,-199.5 447.0488,-293.5 447.0488,-293.5 447.0488,-299.5 441.0488,-305.5 435.0488,-305.5 435.0488,-305.5 216,-305.5 216,-305.5 210,-305.5 204,-299.5 204,-293.5 204,-293.5 204,-199.5 204,-199.5 204,-193.5 210,-187.5 216,-187.5"/>
<text text-anchor="middle" x="325.5244" y="-290.3" font-family="Times,serif" font-size="14.00" fill="#000000">ActiveStorage::DirectUploadsController</text>
<polyline fill="none" stroke="#000000" points="204,-283.5 447.0488,-283.5 "/>
<text text-anchor="start" x="212" y="-268.3" font-family="Times,serif" font-size="14.00" fill="#000000">create</text>
<polyline fill="none" stroke="#000000" points="204,-261.5 447.0488,-261.5 "/>
<polyline fill="none" stroke="#000000" points="204,-237.5 447.0488,-237.5 "/>
<text text-anchor="start" x="212" y="-222.3" font-family="Times,serif" font-size="14.00" fill="#000000">_layout</text>
<text text-anchor="start" x="212" y="-208.3" font-family="Times,serif" font-size="14.00" fill="#000000">blob_args</text>
<text text-anchor="start" x="212" y="-194.3" font-family="Times,serif" font-size="14.00" fill="#000000">direct_upload_json</text>
</g>
<!-- ActiveStorage::DiskController -->
<g id="node12" class="node">
<title>ActiveStorage::DiskController</title>
<path fill="none" stroke="#000000" d="M488,-119.5C488,-119.5 651.8555,-119.5 651.8555,-119.5 657.8555,-119.5 663.8555,-125.5 663.8555,-131.5 663.8555,-131.5 663.8555,-267.5 663.8555,-267.5 663.8555,-273.5 657.8555,-279.5 651.8555,-279.5 651.8555,-279.5 488,-279.5 488,-279.5 482,-279.5 476,-273.5 476,-267.5 476,-267.5 476,-131.5 476,-131.5 476,-125.5 482,-119.5 488,-119.5"/>
<text text-anchor="middle" x="569.9277" y="-264.3" font-family="Times,serif" font-size="14.00" fill="#000000">ActiveStorage::DiskController</text>
<polyline fill="none" stroke="#000000" points="476,-257.5 663.8555,-257.5 "/>
<text text-anchor="start" x="484" y="-242.3" font-family="Times,serif" font-size="14.00" fill="#000000">show</text>
<text text-anchor="start" x="484" y="-228.3" font-family="Times,serif" font-size="14.00" fill="#000000">update</text>
<polyline fill="none" stroke="#000000" points="476,-221.5 663.8555,-221.5 "/>
<polyline fill="none" stroke="#000000" points="476,-197.5 663.8555,-197.5 "/>
<text text-anchor="start" x="484" y="-182.3" font-family="Times,serif" font-size="14.00" fill="#000000">_layout</text>
<text text-anchor="start" x="484" y="-168.3" font-family="Times,serif" font-size="14.00" fill="#000000">acceptable_content?</text>
<text text-anchor="start" x="484" y="-154.3" font-family="Times,serif" font-size="14.00" fill="#000000">decode_verified_key</text>
<text text-anchor="start" x="484" y="-140.3" font-family="Times,serif" font-size="14.00" fill="#000000">decode_verified_token</text>
<text text-anchor="start" x="484" y="-126.3" font-family="Times,serif" font-size="14.00" fill="#000000">disk_service</text>
</g>
<!-- ActiveStorage::RepresentationsController -->
<g id="node13" class="node">
<title>ActiveStorage::RepresentationsController</title>
<path fill="none" stroke="#000000" d="M437,-340.5C437,-340.5 663.8281,-340.5 663.8281,-340.5 669.8281,-340.5 675.8281,-346.5 675.8281,-352.5 675.8281,-352.5 675.8281,-418.5 675.8281,-418.5 675.8281,-424.5 669.8281,-430.5 663.8281,-430.5 663.8281,-430.5 437,-430.5 437,-430.5 431,-430.5 425,-424.5 425,-418.5 425,-418.5 425,-352.5 425,-352.5 425,-346.5 431,-340.5 437,-340.5"/>
<text text-anchor="middle" x="550.4141" y="-415.3" font-family="Times,serif" font-size="14.00" fill="#000000">ActiveStorage::RepresentationsController</text>
<polyline fill="none" stroke="#000000" points="425,-408.5 675.8281,-408.5 "/>
<text text-anchor="start" x="433" y="-393.3" font-family="Times,serif" font-size="14.00" fill="#000000">show</text>
<polyline fill="none" stroke="#000000" points="425,-386.5 675.8281,-386.5 "/>
<polyline fill="none" stroke="#000000" points="425,-362.5 675.8281,-362.5 "/>
<text text-anchor="start" x="433" y="-347.3" font-family="Times,serif" font-size="14.00" fill="#000000">_layout</text>
</g>
</g>
</svg>
