<?xml version="1.0" encoding="UTF-8" standalone="no"?>
<!DOCTYPE svg PUBLIC "-//W3C//DTD SVG 1.1//EN"
 "http://www.w3.org/Graphics/SVG/1.1/DTD/svg11.dtd">
<!-- Generated by graphviz version 2.40.1 (20161225.0304)
 -->
<!-- Title: controllers_diagram Pages: 1 -->
<svg width="832pt" height="731pt"
 viewBox="0.00 0.00 832.08 731.00" xmlns="http://www.w3.org/2000/svg" xmlns:xlink="http://www.w3.org/1999/xlink">
<g id="graph0" class="graph" transform="scale(1 1) rotate(0) translate(4 727)">
<title>controllers_diagram</title>
<polygon fill="transparent" stroke="transparent" points="-4,4 -4,-727 828.083,-727 828.083,4 -4,4"/>
<!-- ApplicationController -->
<g id="node1" class="node">
<title>ApplicationController</title>
<path fill="none" stroke="#000000" d="M408,-396.5C408,-396.5 587.3867,-396.5 587.3867,-396.5 593.3867,-396.5 599.3867,-402.5 599.3867,-408.5 599.3867,-408.5 599.3867,-530.5 599.3867,-530.5 599.3867,-536.5 593.3867,-542.5 587.3867,-542.5 587.3867,-542.5 408,-542.5 408,-542.5 402,-542.5 396,-536.5 396,-530.5 396,-530.5 396,-408.5 396,-408.5 396,-402.5 402,-396.5 408,-396.5"/>
<text text-anchor="middle" x="497.6934" y="-527.3" font-family="Times,serif" font-size="14.00" fill="#000000">ApplicationController</text>
<polyline fill="none" stroke="#000000" points="396,-520.5 599.3867,-520.5 "/>
<text text-anchor="start" x="404" y="-505.3" font-family="Times,serif" font-size="14.00" fill="#000000">set_current_objects</text>
<text text-anchor="start" x="404" y="-491.3" font-family="Times,serif" font-size="14.00" fill="#000000">set_current_supported_languages</text>
<polyline fill="none" stroke="#000000" points="396,-484.5 599.3867,-484.5 "/>
<polyline fill="none" stroke="#000000" points="396,-460.5 599.3867,-460.5 "/>
<text text-anchor="start" x="404" y="-445.3" font-family="Times,serif" font-size="14.00" fill="#000000">_layout</text>
<text text-anchor="start" x="404" y="-431.3" font-family="Times,serif" font-size="14.00" fill="#000000">current_tenant</text>
<text text-anchor="start" x="404" y="-417.3" font-family="Times,serif" font-size="14.00" fill="#000000">not_authenticated</text>
<text text-anchor="start" x="404" y="-403.3" font-family="Times,serif" font-size="14.00" fill="#000000">set_current_tenant</text>
</g>
<!-- Dashboard::BaseController -->
<g id="node2" class="node">
<title>Dashboard::BaseController</title>
<path fill="none" stroke="#000000" d="M390,-630.5C390,-630.5 535.1865,-630.5 535.1865,-630.5 541.1865,-630.5 547.1865,-636.5 547.1865,-642.5 547.1865,-642.5 547.1865,-710.5 547.1865,-710.5 547.1865,-716.5 541.1865,-722.5 535.1865,-722.5 535.1865,-722.5 390,-722.5 390,-722.5 384,-722.5 378,-716.5 378,-710.5 378,-710.5 378,-642.5 378,-642.5 378,-636.5 384,-630.5 390,-630.5"/>
<text text-anchor="middle" x="462.5933" y="-707.3" font-family="Times,serif" font-size="14.00" fill="#000000">Dashboard::BaseController</text>
<polyline fill="none" stroke="#000000" points="378,-700.5 547.1865,-700.5 "/>
<polyline fill="none" stroke="#000000" points="378,-676.5 547.1865,-676.5 "/>
<polyline fill="none" stroke="#000000" points="378,-652.5 547.1865,-652.5 "/>
<text text-anchor="start" x="386" y="-637.3" font-family="Times,serif" font-size="14.00" fill="#000000">_layout</text>
</g>
<!-- Dashboard::IndexController -->
<g id="node3" class="node">
<title>Dashboard::IndexController</title>
<path fill="none" stroke="#000000" d="M174,-630.5C174,-630.5 323.8486,-630.5 323.8486,-630.5 329.8486,-630.5 335.8486,-636.5 335.8486,-642.5 335.8486,-642.5 335.8486,-708.5 335.8486,-708.5 335.8486,-714.5 329.8486,-720.5 323.8486,-720.5 323.8486,-720.5 174,-720.5 174,-720.5 168,-720.5 162,-714.5 162,-708.5 162,-708.5 162,-642.5 162,-642.5 162,-636.5 168,-630.5 174,-630.5"/>
<text text-anchor="middle" x="248.9243" y="-705.3" font-family="Times,serif" font-size="14.00" fill="#000000">Dashboard::IndexController</text>
<polyline fill="none" stroke="#000000" points="162,-698.5 335.8486,-698.5 "/>
<text text-anchor="start" x="170" y="-683.3" font-family="Times,serif" font-size="14.00" fill="#000000">index</text>
<polyline fill="none" stroke="#000000" points="162,-676.5 335.8486,-676.5 "/>
<polyline fill="none" stroke="#000000" points="162,-652.5 335.8486,-652.5 "/>
<text text-anchor="start" x="170" y="-637.3" font-family="Times,serif" font-size="14.00" fill="#000000">_layout</text>
</g>
<!-- Dashboard::OrganizationsController -->
<g id="node4" class="node">
<title>Dashboard::OrganizationsController</title>
<path fill="none" stroke="#000000" d="M588,-576.5C588,-576.5 784.2578,-576.5 784.2578,-576.5 790.2578,-576.5 796.2578,-582.5 796.2578,-588.5 796.2578,-588.5 796.2578,-668.5 796.2578,-668.5 796.2578,-674.5 790.2578,-680.5 784.2578,-680.5 784.2578,-680.5 588,-680.5 588,-680.5 582,-680.5 576,-674.5 576,-668.5 576,-668.5 576,-588.5 576,-588.5 576,-582.5 582,-576.5 588,-576.5"/>
<text text-anchor="middle" x="686.1289" y="-665.3" font-family="Times,serif" font-size="14.00" fill="#000000">Dashboard::OrganizationsController</text>
<polyline fill="none" stroke="#000000" points="576,-658.5 796.2578,-658.5 "/>
<text text-anchor="start" x="584" y="-643.3" font-family="Times,serif" font-size="14.00" fill="#000000">index</text>
<text text-anchor="start" x="584" y="-629.3" font-family="Times,serif" font-size="14.00" fill="#000000">new</text>
<polyline fill="none" stroke="#000000" points="576,-622.5 796.2578,-622.5 "/>
<polyline fill="none" stroke="#000000" points="576,-598.5 796.2578,-598.5 "/>
<text text-anchor="start" x="584" y="-583.3" font-family="Times,serif" font-size="14.00" fill="#000000">_layout</text>
</g>
<!-- Dashboard::ProjectsController -->
<g id="node5" class="node">
<title>Dashboard::ProjectsController</title>
<path fill="none" stroke="#000000" d="M192,-432.5C192,-432.5 355.0762,-432.5 355.0762,-432.5 361.0762,-432.5 367.0762,-438.5 367.0762,-444.5 367.0762,-444.5 367.0762,-580.5 367.0762,-580.5 367.0762,-586.5 361.0762,-592.5 355.0762,-592.5 355.0762,-592.5 192,-592.5 192,-592.5 186,-592.5 180,-586.5 180,-580.5 180,-580.5 180,-444.5 180,-444.5 180,-438.5 186,-432.5 192,-432.5"/>
<text text-anchor="middle" x="273.5381" y="-577.3" font-family="Times,serif" font-size="14.00" fill="#000000">Dashboard::ProjectsController</text>
<polyline fill="none" stroke="#000000" points="180,-570.5 367.0762,-570.5 "/>
<text text-anchor="start" x="188" y="-555.3" font-family="Times,serif" font-size="14.00" fill="#000000">create</text>
<text text-anchor="start" x="188" y="-541.3" font-family="Times,serif" font-size="14.00" fill="#000000">new</text>
<text text-anchor="start" x="188" y="-527.3" font-family="Times,serif" font-size="14.00" fill="#000000">show</text>
<polyline fill="none" stroke="#000000" points="180,-520.5 367.0762,-520.5 "/>
<polyline fill="none" stroke="#000000" points="180,-496.5 367.0762,-496.5 "/>
<text text-anchor="start" x="188" y="-481.3" font-family="Times,serif" font-size="14.00" fill="#000000">_layout</text>
<text text-anchor="start" x="188" y="-467.3" font-family="Times,serif" font-size="14.00" fill="#000000">set_presenter</text>
<text text-anchor="start" x="188" y="-453.3" font-family="Times,serif" font-size="14.00" fill="#000000">set_project</text>
<text text-anchor="start" x="188" y="-439.3" font-family="Times,serif" font-size="14.00" fill="#000000">set_supported_languages</text>
</g>
<!-- PagesController -->
<g id="node6" class="node">
<title>PagesController</title>
<path fill="none" stroke="#000000" d="M48,-306.5C48,-306.5 130.207,-306.5 130.207,-306.5 136.207,-306.5 142.207,-312.5 142.207,-318.5 142.207,-318.5 142.207,-426.5 142.207,-426.5 142.207,-432.5 136.207,-438.5 130.207,-438.5 130.207,-438.5 48,-438.5 48,-438.5 42,-438.5 36,-432.5 36,-426.5 36,-426.5 36,-318.5 36,-318.5 36,-312.5 42,-306.5 48,-306.5"/>
<text text-anchor="middle" x="89.1035" y="-423.3" font-family="Times,serif" font-size="14.00" fill="#000000">PagesController</text>
<polyline fill="none" stroke="#000000" points="36,-416.5 142.207,-416.5 "/>
<text text-anchor="start" x="44" y="-401.3" font-family="Times,serif" font-size="14.00" fill="#000000">docs</text>
<text text-anchor="start" x="44" y="-387.3" font-family="Times,serif" font-size="14.00" fill="#000000">features</text>
<text text-anchor="start" x="44" y="-373.3" font-family="Times,serif" font-size="14.00" fill="#000000">home</text>
<text text-anchor="start" x="44" y="-359.3" font-family="Times,serif" font-size="14.00" fill="#000000">pricing</text>
<polyline fill="none" stroke="#000000" points="36,-352.5 142.207,-352.5 "/>
<polyline fill="none" stroke="#000000" points="36,-328.5 142.207,-328.5 "/>
<text text-anchor="start" x="44" y="-313.3" font-family="Times,serif" font-size="14.00" fill="#000000">_layout</text>
</g>
<!-- Users::BaseController -->
<g id="node7" class="node">
<title>Users::BaseController</title>
<path fill="none" stroke="#000000" d="M12,-504.5C12,-504.5 129.1729,-504.5 129.1729,-504.5 135.1729,-504.5 141.1729,-510.5 141.1729,-516.5 141.1729,-516.5 141.1729,-582.5 141.1729,-582.5 141.1729,-588.5 135.1729,-594.5 129.1729,-594.5 129.1729,-594.5 12,-594.5 12,-594.5 6,-594.5 0,-588.5 0,-582.5 0,-582.5 0,-516.5 0,-516.5 0,-510.5 6,-504.5 12,-504.5"/>
<text text-anchor="middle" x="70.5864" y="-579.3" font-family="Times,serif" font-size="14.00" fill="#000000">Users::BaseController</text>
<polyline fill="none" stroke="#000000" points="0,-572.5 141.1729,-572.5 "/>
<text text-anchor="start" x="8" y="-557.3" font-family="Times,serif" font-size="14.00" fill="#000000">redirect_to_dashboard</text>
<polyline fill="none" stroke="#000000" points="0,-550.5 141.1729,-550.5 "/>
<polyline fill="none" stroke="#000000" points="0,-526.5 141.1729,-526.5 "/>
<text text-anchor="start" x="8" y="-511.3" font-family="Times,serif" font-size="14.00" fill="#000000">_layout</text>
</g>
<!-- Users::SessionsController -->
<g id="node8" class="node">
<title>Users::SessionsController</title>
<path fill="none" stroke="#000000" d="M408,-.5C408,-.5 545.4414,-.5 545.4414,-.5 551.4414,-.5 557.4414,-6.5 557.4414,-12.5 557.4414,-12.5 557.4414,-120.5 557.4414,-120.5 557.4414,-126.5 551.4414,-132.5 545.4414,-132.5 545.4414,-132.5 408,-132.5 408,-132.5 402,-132.5 396,-126.5 396,-120.5 396,-120.5 396,-12.5 396,-12.5 396,-6.5 402,-.5 408,-.5"/>
<text text-anchor="middle" x="476.7207" y="-117.3" font-family="Times,serif" font-size="14.00" fill="#000000">Users::SessionsController</text>
<polyline fill="none" stroke="#000000" points="396,-110.5 557.4414,-110.5 "/>
<text text-anchor="start" x="404" y="-95.3" font-family="Times,serif" font-size="14.00" fill="#000000">create</text>
<text text-anchor="start" x="404" y="-81.3" font-family="Times,serif" font-size="14.00" fill="#000000">destroy</text>
<text text-anchor="start" x="404" y="-67.3" font-family="Times,serif" font-size="14.00" fill="#000000">index</text>
<text text-anchor="start" x="404" y="-53.3" font-family="Times,serif" font-size="14.00" fill="#000000">new</text>
<polyline fill="none" stroke="#000000" points="396,-46.5 557.4414,-46.5 "/>
<polyline fill="none" stroke="#000000" points="396,-22.5 557.4414,-22.5 "/>
<text text-anchor="start" x="404" y="-7.3" font-family="Times,serif" font-size="14.00" fill="#000000">_layout</text>
</g>
<!-- Users::SignupsController -->
<g id="node9" class="node">
<title>Users::SignupsController</title>
<path fill="none" stroke="#000000" d="M606,-.5C606,-.5 740.3311,-.5 740.3311,-.5 746.3311,-.5 752.3311,-6.5 752.3311,-12.5 752.3311,-12.5 752.3311,-120.5 752.3311,-120.5 752.3311,-126.5 746.3311,-132.5 740.3311,-132.5 740.3311,-132.5 606,-132.5 606,-132.5 600,-132.5 594,-126.5 594,-120.5 594,-120.5 594,-12.5 594,-12.5 594,-6.5 600,-.5 606,-.5"/>
<text text-anchor="middle" x="673.1655" y="-117.3" font-family="Times,serif" font-size="14.00" fill="#000000">Users::SignupsController</text>
<polyline fill="none" stroke="#000000" points="594,-110.5 752.3311,-110.5 "/>
<text text-anchor="start" x="602" y="-95.3" font-family="Times,serif" font-size="14.00" fill="#000000">create</text>
<text text-anchor="start" x="602" y="-81.3" font-family="Times,serif" font-size="14.00" fill="#000000">index</text>
<text text-anchor="start" x="602" y="-67.3" font-family="Times,serif" font-size="14.00" fill="#000000">new</text>
<polyline fill="none" stroke="#000000" points="594,-60.5 752.3311,-60.5 "/>
<polyline fill="none" stroke="#000000" points="594,-36.5 752.3311,-36.5 "/>
<text text-anchor="start" x="602" y="-21.3" font-family="Times,serif" font-size="14.00" fill="#000000">_layout</text>
<text text-anchor="start" x="602" y="-7.3" font-family="Times,serif" font-size="14.00" fill="#000000">user_params</text>
</g>
<!-- ActiveStorage::BlobsController -->
<g id="node10" class="node">
<title>ActiveStorage::BlobsController</title>
<path fill="none" stroke="#000000" d="M642,-360.5C642,-360.5 812.083,-360.5 812.083,-360.5 818.083,-360.5 824.083,-366.5 824.083,-372.5 824.083,-372.5 824.083,-438.5 824.083,-438.5 824.083,-444.5 818.083,-450.5 812.083,-450.5 812.083,-450.5 642,-450.5 642,-450.5 636,-450.5 630,-444.5 630,-438.5 630,-438.5 630,-372.5 630,-372.5 630,-366.5 636,-360.5 642,-360.5"/>
<text text-anchor="middle" x="727.0415" y="-435.3" font-family="Times,serif" font-size="14.00" fill="#000000">ActiveStorage::BlobsController</text>
<polyline fill="none" stroke="#000000" points="630,-428.5 824.083,-428.5 "/>
<text text-anchor="start" x="638" y="-413.3" font-family="Times,serif" font-size="14.00" fill="#000000">show</text>
<polyline fill="none" stroke="#000000" points="630,-406.5 824.083,-406.5 "/>
<polyline fill="none" stroke="#000000" points="630,-382.5 824.083,-382.5 "/>
<text text-anchor="start" x="638" y="-367.3" font-family="Times,serif" font-size="14.00" fill="#000000">_layout</text>
</g>
<!-- ActiveStorage::DirectUploadsController -->
<g id="node11" class="node">
<title>ActiveStorage::DirectUploadsController</title>
<path fill="none" stroke="#000000" d="M192,-234.5C192,-234.5 411.0488,-234.5 411.0488,-234.5 417.0488,-234.5 423.0488,-240.5 423.0488,-246.5 423.0488,-246.5 423.0488,-340.5 423.0488,-340.5 423.0488,-346.5 417.0488,-352.5 411.0488,-352.5 411.0488,-352.5 192,-352.5 192,-352.5 186,-352.5 180,-346.5 180,-340.5 180,-340.5 180,-246.5 180,-246.5 180,-240.5 186,-234.5 192,-234.5"/>
<text text-anchor="middle" x="301.5244" y="-337.3" font-family="Times,serif" font-size="14.00" fill="#000000">ActiveStorage::DirectUploadsController</text>
<polyline fill="none" stroke="#000000" points="180,-330.5 423.0488,-330.5 "/>
<text text-anchor="start" x="188" y="-315.3" font-family="Times,serif" font-size="14.00" fill="#000000">create</text>
<polyline fill="none" stroke="#000000" points="180,-308.5 423.0488,-308.5 "/>
<polyline fill="none" stroke="#000000" points="180,-284.5 423.0488,-284.5 "/>
<text text-anchor="start" x="188" y="-269.3" font-family="Times,serif" font-size="14.00" fill="#000000">_layout</text>
<text text-anchor="start" x="188" y="-255.3" font-family="Times,serif" font-size="14.00" fill="#000000">blob_args</text>
<text text-anchor="start" x="188" y="-241.3" font-family="Times,serif" font-size="14.00" fill="#000000">direct_upload_json</text>
</g>
<!-- ActiveStorage::DiskController -->
<g id="node12" class="node">
<title>ActiveStorage::DiskController</title>
<path fill="none" stroke="#000000" d="M462,-162.5C462,-162.5 625.8555,-162.5 625.8555,-162.5 631.8555,-162.5 637.8555,-168.5 637.8555,-174.5 637.8555,-174.5 637.8555,-310.5 637.8555,-310.5 637.8555,-316.5 631.8555,-322.5 625.8555,-322.5 625.8555,-322.5 462,-322.5 462,-322.5 456,-322.5 450,-316.5 450,-310.5 450,-310.5 450,-174.5 450,-174.5 450,-168.5 456,-162.5 462,-162.5"/>
<text text-anchor="middle" x="543.9277" y="-307.3" font-family="Times,serif" font-size="14.00" fill="#000000">ActiveStorage::DiskController</text>
<polyline fill="none" stroke="#000000" points="450,-300.5 637.8555,-300.5 "/>
<text text-anchor="start" x="458" y="-285.3" font-family="Times,serif" font-size="14.00" fill="#000000">show</text>
<text text-anchor="start" x="458" y="-271.3" font-family="Times,serif" font-size="14.00" fill="#000000">update</text>
<polyline fill="none" stroke="#000000" points="450,-264.5 637.8555,-264.5 "/>
<polyline fill="none" stroke="#000000" points="450,-240.5 637.8555,-240.5 "/>
<text text-anchor="start" x="458" y="-225.3" font-family="Times,serif" font-size="14.00" fill="#000000">_layout</text>
<text text-anchor="start" x="458" y="-211.3" font-family="Times,serif" font-size="14.00" fill="#000000">acceptable_content?</text>
<text text-anchor="start" x="458" y="-197.3" font-family="Times,serif" font-size="14.00" fill="#000000">decode_verified_key</text>
<text text-anchor="start" x="458" y="-183.3" font-family="Times,serif" font-size="14.00" fill="#000000">decode_verified_token</text>
<text text-anchor="start" x="458" y="-169.3" font-family="Times,serif" font-size="14.00" fill="#000000">disk_service</text>
</g>
<!-- ActiveStorage::RepresentationsController -->
<g id="node13" class="node">
<title>ActiveStorage::RepresentationsController</title>
<path fill="none" stroke="#000000" d="M120,-108.5C120,-108.5 346.8281,-108.5 346.8281,-108.5 352.8281,-108.5 358.8281,-114.5 358.8281,-120.5 358.8281,-120.5 358.8281,-186.5 358.8281,-186.5 358.8281,-192.5 352.8281,-198.5 346.8281,-198.5 346.8281,-198.5 120,-198.5 120,-198.5 114,-198.5 108,-192.5 108,-186.5 108,-186.5 108,-120.5 108,-120.5 108,-114.5 114,-108.5 120,-108.5"/>
<text text-anchor="middle" x="233.4141" y="-183.3" font-family="Times,serif" font-size="14.00" fill="#000000">ActiveStorage::RepresentationsController</text>
<polyline fill="none" stroke="#000000" points="108,-176.5 358.8281,-176.5 "/>
<text text-anchor="start" x="116" y="-161.3" font-family="Times,serif" font-size="14.00" fill="#000000">show</text>
<polyline fill="none" stroke="#000000" points="108,-154.5 358.8281,-154.5 "/>
<polyline fill="none" stroke="#000000" points="108,-130.5 358.8281,-130.5 "/>
<text text-anchor="start" x="116" y="-115.3" font-family="Times,serif" font-size="14.00" fill="#000000">_layout</text>
</g>
</g>
</svg>
