<?xml version="1.0" encoding="UTF-8" standalone="no"?>
<!DOCTYPE svg PUBLIC "-//W3C//DTD SVG 1.1//EN"
 "http://www.w3.org/Graphics/SVG/1.1/DTD/svg11.dtd">
<!-- Generated by graphviz version 2.40.1 (20161225.0304)
 -->
<!-- Title: Relay Pages: 1 -->
<svg width="821pt" height="563pt"
 viewBox="0.00 0.00 821.20 562.60" xmlns="http://www.w3.org/2000/svg" xmlns:xlink="http://www.w3.org/1999/xlink">
<g id="graph0" class="graph" transform="scale(1 1) rotate(0) translate(28.8 533.8)">
<title>Relay</title>
<polygon fill="#ffffff" stroke="transparent" points="-28.8,28.8 -28.8,-533.8 792.3955,-533.8 792.3955,28.8 -28.8,28.8"/>
<text text-anchor="middle" x="381.7977" y="-490.6" font-family="Arial BoldMT" font-size="13.00" fill="#000000">Relay domain model</text>
<!-- m_ApplicationRecord -->
<g id="node1" class="node">
<title>m_ApplicationRecord</title>
<path fill="none" stroke="#999999" d="M360,-432.5C360,-432.5 480,-432.5 480,-432.5 486,-432.5 492,-438.5 492,-444.5 492,-444.5 492,-456.5 492,-456.5 492,-462.5 486,-468.5 480,-468.5 480,-468.5 360,-468.5 360,-468.5 354,-468.5 348,-462.5 348,-456.5 348,-456.5 348,-444.5 348,-444.5 348,-438.5 354,-432.5 360,-432.5"/>
<text text-anchor="start" x="373.3635" y="-446.7" font-family="Arial BoldMT" font-size="11.00" fill="#999999">ApplicationRecord</text>
</g>
<!-- m_Onboard -->
<g id="node2" class="node">
<title>m_Onboard</title>
<path fill="none" stroke="#000000" d="M12,-105.5C12,-105.5 132,-105.5 132,-105.5 138,-105.5 144,-111.5 144,-117.5 144,-117.5 144,-187.5 144,-187.5 144,-193.5 138,-199.5 132,-199.5 132,-199.5 12,-199.5 12,-199.5 6,-199.5 0,-193.5 0,-187.5 0,-187.5 0,-117.5 0,-117.5 0,-111.5 6,-105.5 12,-105.5"/>
<text text-anchor="start" x="48.5962" y="-186.2" font-family="Arial BoldMT" font-size="11.00" fill="#000000">Onboard</text>
<polyline fill="none" stroke="#000000" points="0,-180.5 144,-180.5 "/>
<text text-anchor="start" x="7" y="-167" font-family="ArialMT" font-size="10.00" fill="#000000">created_at </text>
<text text-anchor="start" x="57.0342" y="-167" font-family="Arial ItalicMT" font-size="10.00" fill="#999999">datetime ∗</text>
<text text-anchor="start" x="7" y="-154" font-family="ArialMT" font-size="10.00" fill="#000000">id </text>
<text text-anchor="start" x="17.5615" y="-154" font-family="Arial ItalicMT" font-size="10.00" fill="#999999">uuid PK</text>
<text text-anchor="start" x="7" y="-141" font-family="ArialMT" font-size="10.00" fill="#000000">state </text>
<text text-anchor="start" x="31.458" y="-141" font-family="Arial ItalicMT" font-size="10.00" fill="#999999">string</text>
<text text-anchor="start" x="7" y="-128" font-family="ArialMT" font-size="10.00" fill="#000000">updated_at </text>
<text text-anchor="start" x="59.8271" y="-128" font-family="Arial ItalicMT" font-size="10.00" fill="#999999">datetime ∗</text>
<text text-anchor="start" x="7" y="-115" font-family="ArialMT" font-size="10.00" fill="#000000">user_id </text>
<text text-anchor="start" x="42.5762" y="-115" font-family="Arial ItalicMT" font-size="10.00" fill="#999999">integer (8) ∗ FK</text>
</g>
<!-- m_ApplicationRecord&#45;&gt;m_Onboard -->
<g id="edge1" class="edge">
<title>m_ApplicationRecord&#45;&gt;m_Onboard</title>
<path fill="none" stroke="#999999" d="M335.6547,-447.2194C252.1676,-442.0913 132.4065,-429.0398 101,-396 51.43,-343.8522 54.6695,-254.4369 62.5964,-199.6853"/>
<polygon fill="none" stroke="#999999" points="335.4707,-451.4157 347.6944,-447.92 335.9587,-443.0299 335.4707,-451.4157"/>
</g>
<!-- m_Organization -->
<g id="node3" class="node">
<title>m_Organization</title>
<path fill="none" stroke="#000000" d="M360,-262.5C360,-262.5 480,-262.5 480,-262.5 486,-262.5 492,-268.5 492,-274.5 492,-274.5 492,-370.5 492,-370.5 492,-376.5 486,-382.5 480,-382.5 480,-382.5 360,-382.5 360,-382.5 354,-382.5 348,-376.5 348,-370.5 348,-370.5 348,-274.5 348,-274.5 348,-268.5 354,-262.5 360,-262.5"/>
<text text-anchor="start" x="386.8154" y="-369.2" font-family="Arial BoldMT" font-size="11.00" fill="#000000">Organization</text>
<polyline fill="none" stroke="#000000" points="348,-363.5 492,-363.5 "/>
<text text-anchor="start" x="355" y="-350" font-family="ArialMT" font-size="10.00" fill="#000000">active </text>
<text text-anchor="start" x="383.9014" y="-350" font-family="Arial ItalicMT" font-size="10.00" fill="#999999">boolean</text>
<text text-anchor="start" x="355" y="-337" font-family="ArialMT" font-size="10.00" fill="#000000">created_at </text>
<text text-anchor="start" x="405.0342" y="-337" font-family="Arial ItalicMT" font-size="10.00" fill="#999999">datetime ∗</text>
<text text-anchor="start" x="355" y="-324" font-family="ArialMT" font-size="10.00" fill="#000000">default </text>
<text text-anchor="start" x="387.8027" y="-324" font-family="Arial ItalicMT" font-size="10.00" fill="#999999">boolean</text>
<text text-anchor="start" x="355" y="-311" font-family="ArialMT" font-size="10.00" fill="#000000">id </text>
<text text-anchor="start" x="365.5615" y="-311" font-family="Arial ItalicMT" font-size="10.00" fill="#999999">integer (8) PK</text>
<text text-anchor="start" x="355" y="-298" font-family="ArialMT" font-size="10.00" fill="#000000">name </text>
<text text-anchor="start" x="382.793" y="-298" font-family="Arial ItalicMT" font-size="10.00" fill="#999999">string</text>
<text text-anchor="start" x="355" y="-285" font-family="ArialMT" font-size="10.00" fill="#000000">slug </text>
<text text-anchor="start" x="376.123" y="-285" font-family="Arial ItalicMT" font-size="10.00" fill="#999999">string</text>
<text text-anchor="start" x="355" y="-272" font-family="ArialMT" font-size="10.00" fill="#000000">updated_at </text>
<text text-anchor="start" x="407.8271" y="-272" font-family="Arial ItalicMT" font-size="10.00" fill="#999999">datetime ∗</text>
</g>
<!-- m_ApplicationRecord&#45;&gt;m_Organization -->
<g id="edge2" class="edge">
<title>m_ApplicationRecord&#45;&gt;m_Organization</title>
<path fill="none" stroke="#999999" d="M420,-420.2278C420,-408.9565 420,-395.7312 420,-382.7153"/>
<polygon fill="none" stroke="#999999" points="415.8001,-420.4322 420,-432.4322 424.2001,-420.4322 415.8001,-420.4322"/>
</g>
<!-- m_OrganizationUser -->
<g id="node4" class="node">
<title>m_OrganizationUser</title>
<path fill="none" stroke="#000000" d="M244.5,-125C244.5,-125 371.5,-125 371.5,-125 377.5,-125 383.5,-131 383.5,-137 383.5,-137 383.5,-168 383.5,-168 383.5,-174 377.5,-180 371.5,-180 371.5,-180 244.5,-180 244.5,-180 238.5,-180 232.5,-174 232.5,-168 232.5,-168 232.5,-137 232.5,-137 232.5,-131 238.5,-125 244.5,-125"/>
<text text-anchor="start" x="263.2031" y="-166.7" font-family="Arial BoldMT" font-size="11.00" fill="#000000">OrganizationUser</text>
<polyline fill="none" stroke="#000000" points="232.5,-161 383.5,-161 "/>
<text text-anchor="start" x="239.6646" y="-148" font-family="ArialMT" font-size="10.00" fill="#000000">organization_id </text>
<text text-anchor="start" x="310.27" y="-148" font-family="Arial ItalicMT" font-size="10.00" fill="#999999">integer (8) ∗ FK</text>
<text text-anchor="start" x="240" y="-135" font-family="ArialMT" font-size="10.00" fill="#000000">user_id </text>
<text text-anchor="start" x="275.5762" y="-135" font-family="Arial ItalicMT" font-size="10.00" fill="#999999">integer (8) ∗ FK</text>
</g>
<!-- m_ApplicationRecord&#45;&gt;m_OrganizationUser -->
<g id="edge3" class="edge">
<title>m_ApplicationRecord&#45;&gt;m_OrganizationUser</title>
<path fill="none" stroke="#999999" d="M364.4251,-426.1711C352.2107,-418.2745 340.6522,-408.2943 333,-396 290.6705,-327.9914 297.1233,-228.1155 303.469,-180.1747"/>
<polygon fill="none" stroke="#999999" points="362.3068,-429.7979 374.7681,-432.3192 366.599,-422.5772 362.3068,-429.7979"/>
</g>
<!-- m_Project -->
<g id="node5" class="node">
<title>m_Project</title>
<path fill="none" stroke="#000000" d="M425,-92.5C425,-92.5 589,-92.5 589,-92.5 595,-92.5 601,-98.5 601,-104.5 601,-104.5 601,-200.5 601,-200.5 601,-206.5 595,-212.5 589,-212.5 589,-212.5 425,-212.5 425,-212.5 419,-212.5 413,-206.5 413,-200.5 413,-200.5 413,-104.5 413,-104.5 413,-98.5 419,-92.5 425,-92.5"/>
<text text-anchor="start" x="487.8823" y="-199.2" font-family="Arial BoldMT" font-size="11.00" fill="#000000">Project</text>
<polyline fill="none" stroke="#000000" points="413,-193.5 601,-193.5 "/>
<text text-anchor="start" x="420" y="-180" font-family="ArialMT" font-size="10.00" fill="#000000">created_at </text>
<text text-anchor="start" x="470.0342" y="-180" font-family="Arial ItalicMT" font-size="10.00" fill="#999999">datetime ∗</text>
<text text-anchor="start" x="420" y="-167" font-family="ArialMT" font-size="10.00" fill="#000000">id </text>
<text text-anchor="start" x="430.5615" y="-167" font-family="Arial ItalicMT" font-size="10.00" fill="#999999">integer (8) PK</text>
<text text-anchor="start" x="420" y="-154" font-family="ArialMT" font-size="10.00" fill="#000000">name </text>
<text text-anchor="start" x="447.793" y="-154" font-family="Arial ItalicMT" font-size="10.00" fill="#999999">string</text>
<text text-anchor="start" x="420" y="-141" font-family="ArialMT" font-size="10.00" fill="#000000">organization_id </text>
<text text-anchor="start" x="490.6055" y="-141" font-family="Arial ItalicMT" font-size="10.00" fill="#999999">integer (8) ∗ FK</text>
<text text-anchor="start" x="420" y="-128" font-family="ArialMT" font-size="10.00" fill="#000000">slug </text>
<text text-anchor="start" x="441.123" y="-128" font-family="Arial ItalicMT" font-size="10.00" fill="#999999">string</text>
<text text-anchor="start" x="419.8101" y="-115" font-family="ArialMT" font-size="10.00" fill="#000000">supported_language_id </text>
<text text-anchor="start" x="527.1245" y="-115" font-family="Arial ItalicMT" font-size="10.00" fill="#999999">integer (8) ∗ FK</text>
<text text-anchor="start" x="420" y="-102" font-family="ArialMT" font-size="10.00" fill="#000000">updated_at </text>
<text text-anchor="start" x="472.8271" y="-102" font-family="Arial ItalicMT" font-size="10.00" fill="#999999">datetime ∗</text>
</g>
<!-- m_ApplicationRecord&#45;&gt;m_Project -->
<g id="edge4" class="edge">
<title>m_ApplicationRecord&#45;&gt;m_Project</title>
<path fill="none" stroke="#999999" d="M477.5277,-426.001C489.3153,-418.197 500.1902,-408.3016 507,-396 538.1207,-339.7821 532.2856,-264.4797 522.4084,-212.5746"/>
<polygon fill="none" stroke="#999999" points="475.1292,-422.5424 467.013,-432.3286 479.4604,-429.7397 475.1292,-422.5424"/>
</g>
<!-- m_ProjectUser -->
<g id="node6" class="node">
<title>m_ProjectUser</title>
<path fill="none" stroke="#000000" d="M287,-.5C287,-.5 407,-.5 407,-.5 413,-.5 419,-6.5 419,-12.5 419,-12.5 419,-43.5 419,-43.5 419,-49.5 413,-55.5 407,-55.5 407,-55.5 287,-55.5 287,-55.5 281,-55.5 275,-49.5 275,-43.5 275,-43.5 275,-12.5 275,-12.5 275,-6.5 281,-.5 287,-.5"/>
<text text-anchor="start" x="316.27" y="-42.2" font-family="Arial BoldMT" font-size="11.00" fill="#000000">ProjectUser</text>
<polyline fill="none" stroke="#000000" points="275,-36.5 419,-36.5 "/>
<text text-anchor="start" x="282" y="-23.5" font-family="ArialMT" font-size="10.00" fill="#000000">project_id </text>
<text text-anchor="start" x="328.1377" y="-23.5" font-family="Arial ItalicMT" font-size="10.00" fill="#999999">integer (8) ∗ FK</text>
<text text-anchor="start" x="282" y="-10.5" font-family="ArialMT" font-size="10.00" fill="#000000">user_id </text>
<text text-anchor="start" x="317.5762" y="-10.5" font-family="Arial ItalicMT" font-size="10.00" fill="#999999">integer (8) ∗ FK</text>
</g>
<!-- m_ApplicationRecord&#45;&gt;m_ProjectUser -->
<g id="edge5" class="edge">
<title>m_ApplicationRecord&#45;&gt;m_ProjectUser</title>
<path fill="none" stroke="#999999" d="M504.4144,-441.7013C593.7454,-431.5215 723.9329,-413.8595 739,-396 781.1284,-346.0637 760.3117,-310.7597 739,-249 710.085,-165.2068 690.6322,-139.8269 616,-92 583.7667,-71.3438 487.2767,-51.5832 419.1125,-39.6206"/>
<polygon fill="none" stroke="#999999" points="503.8251,-437.541 492.3702,-443.0569 504.7647,-445.8883 503.8251,-437.541"/>
</g>
<!-- m_SupportedLanguage -->
<g id="node7" class="node">
<title>m_SupportedLanguage</title>
<path fill="none" stroke="#000000" d="M592,-282C592,-282 712,-282 712,-282 718,-282 724,-288 724,-294 724,-294 724,-351 724,-351 724,-357 718,-363 712,-363 712,-363 592,-363 592,-363 586,-363 580,-357 580,-351 580,-351 580,-294 580,-294 580,-288 586,-282 592,-282"/>
<text text-anchor="start" x="600.1482" y="-349.7" font-family="Arial BoldMT" font-size="11.00" fill="#000000">SupportedLanguage</text>
<polyline fill="none" stroke="#000000" points="580,-344 724,-344 "/>
<text text-anchor="start" x="587" y="-331" font-family="ArialMT" font-size="10.00" fill="#000000">active </text>
<text text-anchor="start" x="615.9014" y="-331" font-family="Arial ItalicMT" font-size="10.00" fill="#999999">boolean</text>
<text text-anchor="start" x="587" y="-318" font-family="ArialMT" font-size="10.00" fill="#000000">id </text>
<text text-anchor="start" x="597.5615" y="-318" font-family="Arial ItalicMT" font-size="10.00" fill="#999999">integer (8) PK</text>
<text text-anchor="start" x="587" y="-305" font-family="ArialMT" font-size="10.00" fill="#000000">image </text>
<text text-anchor="start" x="617.0146" y="-305" font-family="Arial ItalicMT" font-size="10.00" fill="#999999">string</text>
<text text-anchor="start" x="587" y="-292" font-family="ArialMT" font-size="10.00" fill="#000000">name </text>
<text text-anchor="start" x="614.793" y="-292" font-family="Arial ItalicMT" font-size="10.00" fill="#999999">string</text>
</g>
<!-- m_ApplicationRecord&#45;&gt;m_SupportedLanguage -->
<g id="edge6" class="edge">
<title>m_ApplicationRecord&#45;&gt;m_SupportedLanguage</title>
<path fill="none" stroke="#999999" d="M487.8115,-428.1629C510.7584,-419.4553 536.1022,-408.5341 558,-396 574.361,-386.6351 590.9679,-374.6408 605.5787,-363.0697"/>
<polygon fill="none" stroke="#999999" points="486.2087,-424.2777 476.4143,-432.3839 489.1261,-432.1548 486.2087,-424.2777"/>
</g>
<!-- m_User -->
<g id="node8" class="node">
<title>m_User</title>
<path fill="none" stroke="#000000" d="M128,-249.5C128,-249.5 248,-249.5 248,-249.5 254,-249.5 260,-255.5 260,-261.5 260,-261.5 260,-383.5 260,-383.5 260,-389.5 254,-395.5 248,-395.5 248,-395.5 128,-395.5 128,-395.5 122,-395.5 116,-389.5 116,-383.5 116,-383.5 116,-261.5 116,-261.5 116,-255.5 122,-249.5 128,-249.5"/>
<text text-anchor="start" x="174.3877" y="-382.2" font-family="Arial BoldMT" font-size="11.00" fill="#000000">User</text>
<polyline fill="none" stroke="#000000" points="116,-376.5 260,-376.5 "/>
<text text-anchor="start" x="123" y="-363" font-family="ArialMT" font-size="10.00" fill="#000000">created_at </text>
<text text-anchor="start" x="173.0342" y="-363" font-family="Arial ItalicMT" font-size="10.00" fill="#999999">datetime ∗</text>
<text text-anchor="start" x="123" y="-350" font-family="ArialMT" font-size="10.00" fill="#000000">crypted_password </text>
<text text-anchor="start" x="206.9307" y="-350" font-family="Arial ItalicMT" font-size="10.00" fill="#999999">string</text>
<text text-anchor="start" x="123" y="-337" font-family="ArialMT" font-size="10.00" fill="#000000">email </text>
<text text-anchor="start" x="149.6748" y="-337" font-family="Arial ItalicMT" font-size="10.00" fill="#999999">string ∗ U</text>
<text text-anchor="start" x="123" y="-324" font-family="ArialMT" font-size="10.00" fill="#000000">first_name </text>
<text text-anchor="start" x="172.4629" y="-324" font-family="Arial ItalicMT" font-size="10.00" fill="#999999">string</text>
<text text-anchor="start" x="123" y="-311" font-family="ArialMT" font-size="10.00" fill="#000000">id </text>
<text text-anchor="start" x="133.5615" y="-311" font-family="Arial ItalicMT" font-size="10.00" fill="#999999">integer (8) PK</text>
<text text-anchor="start" x="123" y="-298" font-family="ArialMT" font-size="10.00" fill="#000000">last_name </text>
<text text-anchor="start" x="171.916" y="-298" font-family="Arial ItalicMT" font-size="10.00" fill="#999999">string</text>
<text text-anchor="start" x="123" y="-285" font-family="ArialMT" font-size="10.00" fill="#000000">salt </text>
<text text-anchor="start" x="141.3398" y="-285" font-family="Arial ItalicMT" font-size="10.00" fill="#999999">string</text>
<text text-anchor="start" x="123" y="-272" font-family="ArialMT" font-size="10.00" fill="#000000">terms </text>
<text text-anchor="start" x="150.7783" y="-272" font-family="Arial ItalicMT" font-size="10.00" fill="#999999">boolean</text>
<text text-anchor="start" x="123" y="-259" font-family="ArialMT" font-size="10.00" fill="#000000">updated_at </text>
<text text-anchor="start" x="175.8271" y="-259" font-family="Arial ItalicMT" font-size="10.00" fill="#999999">datetime ∗</text>
</g>
<!-- m_ApplicationRecord&#45;&gt;m_User -->
<g id="edge7" class="edge">
<title>m_ApplicationRecord&#45;&gt;m_User</title>
<path fill="none" stroke="#999999" d="M352.1885,-428.1629C329.2416,-419.4553 303.8978,-408.5341 282,-396 274.7185,-391.8321 267.3882,-387.1434 260.2069,-382.203"/>
<polygon fill="none" stroke="#999999" points="350.8739,-432.1548 363.5857,-432.3839 353.7913,-424.2777 350.8739,-432.1548"/>
</g>
<!-- m_Organization&#45;&gt;m_OrganizationUser -->
<g id="edge10" class="edge">
<title>m_Organization&#45;&gt;m_OrganizationUser</title>
<path fill="none" stroke="#000000" d="M377.3822,-257.8122C362.1448,-234.6841 345.5035,-209.4249 332.3389,-189.4429"/>
<ellipse fill="none" stroke="#000000" cx="378.8772" cy="-260.0815" rx="2.4" ry="2.4"/>
<ellipse fill="#000000" stroke="#000000" cx="327.6856" cy="-182.3799" rx="2.4" ry="2.4"/>
<polygon fill="#000000" stroke="#000000" points="334.0606,-188.2391 329.006,-184.384 330.5533,-190.5498 334.0606,-188.2391"/>
</g>
<!-- m_Organization&#45;&gt;m_Project -->
<g id="edge9" class="edge">
<title>m_Organization&#45;&gt;m_Project</title>
<path fill="none" stroke="#000000" d="M453.2418,-257.5448C459.1297,-246.0397 465.2835,-234.015 471.2375,-222.3807"/>
<ellipse fill="none" stroke="#000000" cx="452.0113" cy="-259.9492" rx="2.4" ry="2.4"/>
<ellipse fill="#000000" stroke="#000000" cx="475.0883" cy="-214.8562" rx="2.4" ry="2.4"/>
<polygon fill="#000000" stroke="#000000" points="473.1308,-223.2906 473.9949,-216.9927 469.392,-221.3772 473.1308,-223.2906"/>
</g>
<!-- m_Project&#45;&gt;m_ProjectUser -->
<g id="edge14" class="edge">
<title>m_Project&#45;&gt;m_ProjectUser</title>
<path fill="none" stroke="#000000" d="M425.9521,-89.4346C414.0904,-80.2047 402.2594,-70.9987 391.5025,-62.6285"/>
<ellipse fill="none" stroke="#000000" cx="427.9178" cy="-90.9642" rx="2.4" ry="2.4"/>
<ellipse fill="#000000" stroke="#000000" cx="384.6363" cy="-57.2858" rx="2.4" ry="2.4"/>
<polygon fill="#000000" stroke="#000000" points="392.5554,-60.787 386.5304,-58.7596 389.9761,-64.1017 392.5554,-60.787"/>
</g>
<!-- m_SupportedLanguage&#45;&gt;m_Project -->
<g id="edge12" class="edge">
<title>m_SupportedLanguage&#45;&gt;m_Project</title>
<path fill="none" stroke="#000000" d="M613.9071,-277.8393C599.0663,-260.4398 581.7213,-240.1043 565.3733,-220.9377"/>
<ellipse fill="none" stroke="#000000" cx="615.7114" cy="-279.9548" rx="2.4" ry="2.4"/>
<ellipse fill="#000000" stroke="#000000" cx="559.75" cy="-214.3448" rx="2.4" ry="2.4"/>
<polygon fill="#000000" stroke="#000000" points="566.7989,-219.373 561.3075,-216.1708 563.6034,-222.0986 566.7989,-219.373"/>
</g>
<!-- m_User&#45;&gt;m_Onboard -->
<g id="edge8" class="edge">
<title>m_User&#45;&gt;m_Onboard</title>
<path fill="none" stroke="#000000" d="M135.1794,-245.0905C125.6681,-231.1516 115.9696,-216.9383 107.1179,-203.966"/>
<ellipse fill="none" stroke="#000000" cx="136.7796" cy="-247.4356" rx="2.4" ry="2.4"/>
<ellipse fill="#000000" stroke="#000000" cx="105.752" cy="-201.9641" rx="2.4" ry="2.4"/>
</g>
<!-- m_User&#45;&gt;m_OrganizationUser -->
<g id="edge11" class="edge">
<title>m_User&#45;&gt;m_OrganizationUser</title>
<path fill="none" stroke="#000000" d="M242.4295,-245.3915C256.1515,-225.9521 270.2654,-205.9573 281.8672,-189.5215"/>
<ellipse fill="none" stroke="#000000" cx="240.9713" cy="-247.4574" rx="2.4" ry="2.4"/>
<ellipse fill="#000000" stroke="#000000" cx="287.0018" cy="-182.2474" rx="2.4" ry="2.4"/>
<polygon fill="#000000" stroke="#000000" points="283.8733,-190.321 285.6178,-184.2081 280.442,-187.8989 283.8733,-190.321"/>
</g>
<!-- m_User&#45;&gt;m_Project -->
<g id="edge16" class="edge">
<title>m_User&#45;&gt;m_Project</title>
<path fill="none" stroke="#000000" stroke-dasharray="1,5" d="M264.4918,-283.2228C304.4132,-262.5704 353.9824,-236.6867 398,-213 399.6706,-212.101 401.3546,-211.1926 403.0492,-210.2766"/>
<ellipse fill="none" stroke="#000000" cx="262.2989" cy="-284.3567" rx="2.4" ry="2.4"/>
<ellipse fill="none" stroke="#000000" cx="410.7398" cy="-206.1029" rx="2.4" ry="2.4"/>
<polygon fill="#000000" stroke="#000000" points="404.3586,-211.9554 408.6304,-207.2477 402.3552,-208.2639 404.3586,-211.9554"/>
</g>
<!-- m_User&#45;&gt;m_ProjectUser -->
<g id="edge13" class="edge">
<title>m_User&#45;&gt;m_ProjectUser</title>
<path fill="none" stroke="#000000" d="M180.5314,-244.4463C179.924,-196.3562 186.7804,-135.7454 218,-92 229.7023,-75.6025 246.8182,-63.1869 264.7804,-53.871"/>
<ellipse fill="none" stroke="#000000" cx="180.5765" cy="-246.9559" rx="2.4" ry="2.4"/>
<ellipse fill="#000000" stroke="#000000" cx="272.6575" cy="-50.0551" rx="2.4" ry="2.4"/>
<polygon fill="#000000" stroke="#000000" points="266.0134,-55.6072 270.4976,-51.1014 264.1823,-51.8273 266.0134,-55.6072"/>
</g>
</g>
</svg>
