<?xml version="1.0" encoding="UTF-8" standalone="no"?>
<!DOCTYPE svg PUBLIC "-//W3C//DTD SVG 1.1//EN"
 "http://www.w3.org/Graphics/SVG/1.1/DTD/svg11.dtd">
<!-- Generated by graphviz version 2.40.1 (20161225.0304)
 -->
<!-- Title: Relay Pages: 1 -->
<svg width="822pt" height="563pt"
 viewBox="0.00 0.00 821.62 562.60" xmlns="http://www.w3.org/2000/svg" xmlns:xlink="http://www.w3.org/1999/xlink">
<g id="graph0" class="graph" transform="scale(1 1) rotate(0) translate(28.8 533.8)">
<title>Relay</title>
<polygon fill="#ffffff" stroke="transparent" points="-28.8,28.8 -28.8,-533.8 792.8231,-533.8 792.8231,28.8 -28.8,28.8"/>
<text text-anchor="middle" x="382.0116" y="-490.6" font-family="Arial BoldMT" font-size="13.00" fill="#000000">Relay domain model</text>
<!-- m_ApplicationRecord -->
<g id="node1" class="node">
<title>m_ApplicationRecord</title>
<path fill="none" stroke="#999999" d="M284.0231,-432.5C284.0231,-432.5 404.0231,-432.5 404.0231,-432.5 410.0231,-432.5 416.0231,-438.5 416.0231,-444.5 416.0231,-444.5 416.0231,-456.5 416.0231,-456.5 416.0231,-462.5 410.0231,-468.5 404.0231,-468.5 404.0231,-468.5 284.0231,-468.5 284.0231,-468.5 278.0231,-468.5 272.0231,-462.5 272.0231,-456.5 272.0231,-456.5 272.0231,-444.5 272.0231,-444.5 272.0231,-438.5 278.0231,-432.5 284.0231,-432.5"/>
<text text-anchor="start" x="297.3867" y="-446.7" font-family="Arial BoldMT" font-size="11.00" fill="#999999">ApplicationRecord</text>
</g>
<!-- m_Onboard -->
<g id="node2" class="node">
<title>m_Onboard</title>
<path fill="none" stroke="#000000" d="M632.0231,-105.5C632.0231,-105.5 752.0231,-105.5 752.0231,-105.5 758.0231,-105.5 764.0231,-111.5 764.0231,-117.5 764.0231,-117.5 764.0231,-187.5 764.0231,-187.5 764.0231,-193.5 758.0231,-199.5 752.0231,-199.5 752.0231,-199.5 632.0231,-199.5 632.0231,-199.5 626.0231,-199.5 620.0231,-193.5 620.0231,-187.5 620.0231,-187.5 620.0231,-117.5 620.0231,-117.5 620.0231,-111.5 626.0231,-105.5 632.0231,-105.5"/>
<text text-anchor="start" x="668.6193" y="-186.2" font-family="Arial BoldMT" font-size="11.00" fill="#000000">Onboard</text>
<polyline fill="none" stroke="#000000" points="620.0231,-180.5 764.0231,-180.5 "/>
<text text-anchor="start" x="627.0231" y="-167" font-family="ArialMT" font-size="10.00" fill="#000000">created_at </text>
<text text-anchor="start" x="677.0573" y="-167" font-family="Arial ItalicMT" font-size="10.00" fill="#999999">datetime ∗</text>
<text text-anchor="start" x="627.0231" y="-154" font-family="ArialMT" font-size="10.00" fill="#000000">id </text>
<text text-anchor="start" x="637.5847" y="-154" font-family="Arial ItalicMT" font-size="10.00" fill="#999999">integer (8) PK</text>
<text text-anchor="start" x="627.0231" y="-141" font-family="ArialMT" font-size="10.00" fill="#000000">state </text>
<text text-anchor="start" x="651.4811" y="-141" font-family="Arial ItalicMT" font-size="10.00" fill="#999999">string</text>
<text text-anchor="start" x="627.0231" y="-128" font-family="ArialMT" font-size="10.00" fill="#000000">updated_at </text>
<text text-anchor="start" x="679.8503" y="-128" font-family="Arial ItalicMT" font-size="10.00" fill="#999999">datetime ∗</text>
<text text-anchor="start" x="627.0231" y="-115" font-family="ArialMT" font-size="10.00" fill="#000000">user_id </text>
<text text-anchor="start" x="662.5993" y="-115" font-family="Arial ItalicMT" font-size="10.00" fill="#999999">integer (8) FK</text>
</g>
<!-- m_ApplicationRecord&#45;&gt;m_Onboard -->
<g id="edge1" class="edge">
<title>m_ApplicationRecord&#45;&gt;m_Onboard</title>
<path fill="none" stroke="#999999" d="M428.3685,-447.2194C511.8556,-442.0913 631.6166,-429.0398 663.0231,-396 712.5932,-343.8522 709.3536,-254.4369 701.4268,-199.6853"/>
<polygon fill="none" stroke="#999999" points="428.0645,-443.0299 416.3287,-447.92 428.5525,-451.4157 428.0645,-443.0299"/>
</g>
<!-- m_Organization -->
<g id="node3" class="node">
<title>m_Organization</title>
<path fill="none" stroke="#000000" d="M284.0231,-249.5C284.0231,-249.5 404.0231,-249.5 404.0231,-249.5 410.0231,-249.5 416.0231,-255.5 416.0231,-261.5 416.0231,-261.5 416.0231,-383.5 416.0231,-383.5 416.0231,-389.5 410.0231,-395.5 404.0231,-395.5 404.0231,-395.5 284.0231,-395.5 284.0231,-395.5 278.0231,-395.5 272.0231,-389.5 272.0231,-383.5 272.0231,-383.5 272.0231,-261.5 272.0231,-261.5 272.0231,-255.5 278.0231,-249.5 284.0231,-249.5"/>
<text text-anchor="start" x="310.8386" y="-382.2" font-family="Arial BoldMT" font-size="11.00" fill="#000000">Organization</text>
<polyline fill="none" stroke="#000000" points="272.0231,-376.5 416.0231,-376.5 "/>
<text text-anchor="start" x="279.0231" y="-363" font-family="ArialMT" font-size="10.00" fill="#000000">created_at </text>
<text text-anchor="start" x="329.0573" y="-363" font-family="Arial ItalicMT" font-size="10.00" fill="#999999">datetime ∗</text>
<text text-anchor="start" x="279.0231" y="-350" font-family="ArialMT" font-size="10.00" fill="#000000">default </text>
<text text-anchor="start" x="311.8259" y="-350" font-family="Arial ItalicMT" font-size="10.00" fill="#999999">boolean</text>
<text text-anchor="start" x="279.0231" y="-337" font-family="ArialMT" font-size="10.00" fill="#000000">id </text>
<text text-anchor="start" x="289.5847" y="-337" font-family="Arial ItalicMT" font-size="10.00" fill="#999999">integer (8) PK</text>
<text text-anchor="start" x="279.0231" y="-324" font-family="ArialMT" font-size="10.00" fill="#000000">industry </text>
<text text-anchor="start" x="316.8161" y="-324" font-family="Arial ItalicMT" font-size="10.00" fill="#999999">string</text>
<text text-anchor="start" x="279.0231" y="-311" font-family="ArialMT" font-size="10.00" fill="#000000">name </text>
<text text-anchor="start" x="306.8161" y="-311" font-family="Arial ItalicMT" font-size="10.00" fill="#999999">string</text>
<text text-anchor="start" x="279.0231" y="-298" font-family="ArialMT" font-size="10.00" fill="#000000">size </text>
<text text-anchor="start" x="299.5847" y="-298" font-family="Arial ItalicMT" font-size="10.00" fill="#999999">string</text>
<text text-anchor="start" x="279.0231" y="-285" font-family="ArialMT" font-size="10.00" fill="#000000">slug </text>
<text text-anchor="start" x="300.1462" y="-285" font-family="Arial ItalicMT" font-size="10.00" fill="#999999">string</text>
<text text-anchor="start" x="279.0231" y="-272" font-family="ArialMT" font-size="10.00" fill="#000000">updated_at </text>
<text text-anchor="start" x="331.8503" y="-272" font-family="Arial ItalicMT" font-size="10.00" fill="#999999">datetime ∗</text>
<text text-anchor="start" x="279.0231" y="-259" font-family="ArialMT" font-size="10.00" fill="#000000">website </text>
<text text-anchor="start" x="315.7077" y="-259" font-family="Arial ItalicMT" font-size="10.00" fill="#999999">string</text>
</g>
<!-- m_ApplicationRecord&#45;&gt;m_Organization -->
<g id="edge2" class="edge">
<title>m_ApplicationRecord&#45;&gt;m_Organization</title>
<path fill="none" stroke="#999999" d="M344.0231,-420.2762C344.0231,-412.7066 344.0231,-404.2535 344.0231,-395.5731"/>
<polygon fill="none" stroke="#999999" points="339.8232,-420.4322 344.0231,-432.4322 348.2232,-420.4322 339.8232,-420.4322"/>
</g>
<!-- m_Project -->
<g id="node4" class="node">
<title>m_Project</title>
<path fill="none" stroke="#000000" d="M187.0231,-92.5C187.0231,-92.5 345.0231,-92.5 345.0231,-92.5 351.0231,-92.5 357.0231,-98.5 357.0231,-104.5 357.0231,-104.5 357.0231,-200.5 357.0231,-200.5 357.0231,-206.5 351.0231,-212.5 345.0231,-212.5 345.0231,-212.5 187.0231,-212.5 187.0231,-212.5 181.0231,-212.5 175.0231,-206.5 175.0231,-200.5 175.0231,-200.5 175.0231,-104.5 175.0231,-104.5 175.0231,-98.5 181.0231,-92.5 187.0231,-92.5"/>
<text text-anchor="start" x="246.9055" y="-199.2" font-family="Arial BoldMT" font-size="11.00" fill="#000000">Project</text>
<polyline fill="none" stroke="#000000" points="175.0231,-193.5 357.0231,-193.5 "/>
<text text-anchor="start" x="182.0231" y="-180" font-family="ArialMT" font-size="10.00" fill="#000000">created_at </text>
<text text-anchor="start" x="232.0573" y="-180" font-family="Arial ItalicMT" font-size="10.00" fill="#999999">datetime ∗</text>
<text text-anchor="start" x="182.0231" y="-167" font-family="ArialMT" font-size="10.00" fill="#000000">id </text>
<text text-anchor="start" x="192.5847" y="-167" font-family="Arial ItalicMT" font-size="10.00" fill="#999999">integer (8) PK</text>
<text text-anchor="start" x="182.0231" y="-154" font-family="ArialMT" font-size="10.00" fill="#000000">name </text>
<text text-anchor="start" x="209.8161" y="-154" font-family="Arial ItalicMT" font-size="10.00" fill="#999999">string</text>
<text text-anchor="start" x="182.0231" y="-141" font-family="ArialMT" font-size="10.00" fill="#000000">organization_id </text>
<text text-anchor="start" x="252.6286" y="-141" font-family="Arial ItalicMT" font-size="10.00" fill="#999999">integer (8) FK</text>
<text text-anchor="start" x="182.0231" y="-128" font-family="ArialMT" font-size="10.00" fill="#000000">slug </text>
<text text-anchor="start" x="203.1462" y="-128" font-family="Arial ItalicMT" font-size="10.00" fill="#999999">string</text>
<text text-anchor="start" x="181.7995" y="-115" font-family="ArialMT" font-size="10.00" fill="#000000">supported_language_id </text>
<text text-anchor="start" x="289.114" y="-115" font-family="Arial ItalicMT" font-size="10.00" fill="#999999">integer (8) FK</text>
<text text-anchor="start" x="182.0231" y="-102" font-family="ArialMT" font-size="10.00" fill="#000000">updated_at </text>
<text text-anchor="start" x="234.8503" y="-102" font-family="Arial ItalicMT" font-size="10.00" fill="#999999">datetime ∗</text>
</g>
<!-- m_ApplicationRecord&#45;&gt;m_Project -->
<g id="edge3" class="edge">
<title>m_ApplicationRecord&#45;&gt;m_Project</title>
<path fill="none" stroke="#999999" d="M286.4955,-426.001C274.7078,-418.197 263.833,-408.3016 257.0231,-396 225.8812,-339.7437 234.8931,-264.4485 247.355,-212.5556"/>
<polygon fill="none" stroke="#999999" points="284.5627,-429.7397 297.0101,-432.3286 288.8939,-422.5424 284.5627,-429.7397"/>
</g>
<!-- m_SupportedLanguage -->
<g id="node5" class="node">
<title>m_SupportedLanguage</title>
<path fill="none" stroke="#000000" d="M52.0231,-282C52.0231,-282 172.0231,-282 172.0231,-282 178.0231,-282 184.0231,-288 184.0231,-294 184.0231,-294 184.0231,-351 184.0231,-351 184.0231,-357 178.0231,-363 172.0231,-363 172.0231,-363 52.0231,-363 52.0231,-363 46.0231,-363 40.0231,-357 40.0231,-351 40.0231,-351 40.0231,-294 40.0231,-294 40.0231,-288 46.0231,-282 52.0231,-282"/>
<text text-anchor="start" x="60.1713" y="-349.7" font-family="Arial BoldMT" font-size="11.00" fill="#000000">SupportedLanguage</text>
<polyline fill="none" stroke="#000000" points="40.0231,-344 184.0231,-344 "/>
<text text-anchor="start" x="47.0231" y="-331" font-family="ArialMT" font-size="10.00" fill="#000000">active </text>
<text text-anchor="start" x="75.9245" y="-331" font-family="Arial ItalicMT" font-size="10.00" fill="#999999">boolean</text>
<text text-anchor="start" x="47.0231" y="-318" font-family="ArialMT" font-size="10.00" fill="#000000">id </text>
<text text-anchor="start" x="57.5847" y="-318" font-family="Arial ItalicMT" font-size="10.00" fill="#999999">integer (8) PK</text>
<text text-anchor="start" x="47.0231" y="-305" font-family="ArialMT" font-size="10.00" fill="#000000">image </text>
<text text-anchor="start" x="77.0378" y="-305" font-family="Arial ItalicMT" font-size="10.00" fill="#999999">string</text>
<text text-anchor="start" x="47.0231" y="-292" font-family="ArialMT" font-size="10.00" fill="#000000">name </text>
<text text-anchor="start" x="74.8161" y="-292" font-family="Arial ItalicMT" font-size="10.00" fill="#999999">string</text>
</g>
<!-- m_ApplicationRecord&#45;&gt;m_SupportedLanguage -->
<g id="edge4" class="edge">
<title>m_ApplicationRecord&#45;&gt;m_SupportedLanguage</title>
<path fill="none" stroke="#999999" d="M276.2116,-428.1629C253.2647,-419.4553 227.9209,-408.5341 206.0231,-396 189.6622,-386.6351 173.0552,-374.6408 158.4444,-363.0697"/>
<polygon fill="none" stroke="#999999" points="274.8971,-432.1548 287.6088,-432.3839 277.8144,-424.2777 274.8971,-432.1548"/>
</g>
<!-- m_User -->
<g id="node6" class="node">
<title>m_User</title>
<path fill="none" stroke="#000000" d="M516.0231,-256C516.0231,-256 636.0231,-256 636.0231,-256 642.0231,-256 648.0231,-262 648.0231,-268 648.0231,-268 648.0231,-377 648.0231,-377 648.0231,-383 642.0231,-389 636.0231,-389 636.0231,-389 516.0231,-389 516.0231,-389 510.0231,-389 504.0231,-383 504.0231,-377 504.0231,-377 504.0231,-268 504.0231,-268 504.0231,-262 510.0231,-256 516.0231,-256"/>
<text text-anchor="start" x="562.4108" y="-375.7" font-family="Arial BoldMT" font-size="11.00" fill="#000000">User</text>
<polyline fill="none" stroke="#000000" points="504.0231,-370 648.0231,-370 "/>
<text text-anchor="start" x="511.0231" y="-357" font-family="ArialMT" font-size="10.00" fill="#000000">created_at </text>
<text text-anchor="start" x="561.0573" y="-357" font-family="Arial ItalicMT" font-size="10.00" fill="#999999">datetime ∗</text>
<text text-anchor="start" x="511.0231" y="-344" font-family="ArialMT" font-size="10.00" fill="#000000">crypted_password </text>
<text text-anchor="start" x="594.9538" y="-344" font-family="Arial ItalicMT" font-size="10.00" fill="#999999">string</text>
<text text-anchor="start" x="511.0231" y="-331" font-family="ArialMT" font-size="10.00" fill="#000000">email </text>
<text text-anchor="start" x="537.6979" y="-331" font-family="Arial ItalicMT" font-size="10.00" fill="#999999">string ∗ U</text>
<text text-anchor="start" x="511.0231" y="-318" font-family="ArialMT" font-size="10.00" fill="#000000">id </text>
<text text-anchor="start" x="521.5847" y="-318" font-family="Arial ItalicMT" font-size="10.00" fill="#999999">integer (8) PK</text>
<text text-anchor="start" x="511.0231" y="-305" font-family="ArialMT" font-size="10.00" fill="#000000">name </text>
<text text-anchor="start" x="538.8161" y="-305" font-family="Arial ItalicMT" font-size="10.00" fill="#999999">string</text>
<text text-anchor="start" x="511.0231" y="-292" font-family="ArialMT" font-size="10.00" fill="#000000">salt </text>
<text text-anchor="start" x="529.363" y="-292" font-family="Arial ItalicMT" font-size="10.00" fill="#999999">string</text>
<text text-anchor="start" x="511.0231" y="-279" font-family="ArialMT" font-size="10.00" fill="#000000">terms </text>
<text text-anchor="start" x="538.8015" y="-279" font-family="Arial ItalicMT" font-size="10.00" fill="#999999">boolean</text>
<text text-anchor="start" x="511.0231" y="-266" font-family="ArialMT" font-size="10.00" fill="#000000">updated_at </text>
<text text-anchor="start" x="563.8503" y="-266" font-family="Arial ItalicMT" font-size="10.00" fill="#999999">datetime ∗</text>
</g>
<!-- m_ApplicationRecord&#45;&gt;m_User -->
<g id="edge5" class="edge">
<title>m_ApplicationRecord&#45;&gt;m_User</title>
<path fill="none" stroke="#999999" d="M411.8347,-428.1629C434.7816,-419.4553 460.1253,-408.5341 482.0231,-396 489.3047,-391.8321 496.6349,-387.1434 503.8162,-382.203"/>
<polygon fill="none" stroke="#999999" points="410.2318,-424.2777 400.4375,-432.3839 413.1492,-432.1548 410.2318,-424.2777"/>
</g>
<!-- m_UserOrganization -->
<g id="node7" class="node">
<title>m_UserOrganization</title>
<path fill="none" stroke="#000000" d="M398.5231,-125C398.5231,-125 519.5231,-125 519.5231,-125 525.5231,-125 531.5231,-131 531.5231,-137 531.5231,-137 531.5231,-168 531.5231,-168 531.5231,-174 525.5231,-180 519.5231,-180 519.5231,-180 398.5231,-180 398.5231,-180 392.5231,-180 386.5231,-174 386.5231,-168 386.5231,-168 386.5231,-137 386.5231,-137 386.5231,-131 392.5231,-125 398.5231,-125"/>
<text text-anchor="start" x="414.2263" y="-166.7" font-family="Arial BoldMT" font-size="11.00" fill="#000000">UserOrganization</text>
<polyline fill="none" stroke="#000000" points="386.5231,-161 531.5231,-161 "/>
<text text-anchor="start" x="393.654" y="-148" font-family="ArialMT" font-size="10.00" fill="#000000">organization_id </text>
<text text-anchor="start" x="464.2595" y="-148" font-family="Arial ItalicMT" font-size="10.00" fill="#999999">integer (8) FK</text>
<text text-anchor="start" x="394.0231" y="-135" font-family="ArialMT" font-size="10.00" fill="#000000">user_id </text>
<text text-anchor="start" x="429.5993" y="-135" font-family="Arial ItalicMT" font-size="10.00" fill="#999999">integer (8) FK</text>
</g>
<!-- m_ApplicationRecord&#45;&gt;m_UserOrganization -->
<g id="edge6" class="edge">
<title>m_ApplicationRecord&#45;&gt;m_UserOrganization</title>
<path fill="none" stroke="#999999" d="M399.4936,-426.1057C411.7105,-418.2106 423.2963,-408.2475 431.0231,-396 473.8226,-328.1605 468.7742,-228.2046 463.1364,-180.21"/>
<polygon fill="none" stroke="#999999" points="397.3202,-422.5115 389.1539,-432.2558 401.6145,-429.731 397.3202,-422.5115"/>
</g>
<!-- m_UserProject -->
<g id="node8" class="node">
<title>m_UserProject</title>
<path fill="none" stroke="#000000" d="M206.0231,-.5C206.0231,-.5 326.0231,-.5 326.0231,-.5 332.0231,-.5 338.0231,-6.5 338.0231,-12.5 338.0231,-12.5 338.0231,-43.5 338.0231,-43.5 338.0231,-49.5 332.0231,-55.5 326.0231,-55.5 326.0231,-55.5 206.0231,-55.5 206.0231,-55.5 200.0231,-55.5 194.0231,-49.5 194.0231,-43.5 194.0231,-43.5 194.0231,-12.5 194.0231,-12.5 194.0231,-6.5 200.0231,-.5 206.0231,-.5"/>
<text text-anchor="start" x="235.2932" y="-42.2" font-family="Arial BoldMT" font-size="11.00" fill="#000000">UserProject</text>
<polyline fill="none" stroke="#000000" points="194.0231,-36.5 338.0231,-36.5 "/>
<text text-anchor="start" x="201.0231" y="-23.5" font-family="ArialMT" font-size="10.00" fill="#000000">project_id </text>
<text text-anchor="start" x="247.1608" y="-23.5" font-family="Arial ItalicMT" font-size="10.00" fill="#999999">integer (8) FK</text>
<text text-anchor="start" x="201.0231" y="-10.5" font-family="ArialMT" font-size="10.00" fill="#000000">user_id </text>
<text text-anchor="start" x="236.5993" y="-10.5" font-family="Arial ItalicMT" font-size="10.00" fill="#999999">integer (8) FK</text>
</g>
<!-- m_ApplicationRecord&#45;&gt;m_UserProject -->
<g id="edge7" class="edge">
<title>m_ApplicationRecord&#45;&gt;m_UserProject</title>
<path fill="none" stroke="#999999" d="M259.6087,-441.7013C170.2777,-431.5215 40.0902,-413.8595 25.0231,-396 -17.1053,-346.0637 2.3078,-310.2573 25.0231,-249 58.5277,-158.6467 153.5631,-90.9475 213.7974,-55.5859"/>
<polygon fill="none" stroke="#999999" points="259.2585,-445.8883 271.6529,-443.0569 260.198,-437.541 259.2585,-445.8883"/>
</g>
<!-- m_Organization&#45;&gt;m_Project -->
<g id="edge11" class="edge">
<title>m_Organization&#45;&gt;m_Project</title>
<path fill="none" stroke="#000000" d="M308.3793,-244.8148C304.9826,-237.4116 301.5516,-229.9338 298.1905,-222.6083"/>
<ellipse fill="none" stroke="#000000" cx="309.4906" cy="-247.2368" rx="2.4" ry="2.4"/>
<ellipse fill="#000000" stroke="#000000" cx="294.6611" cy="-214.9161" rx="2.4" ry="2.4"/>
<polygon fill="#000000" stroke="#000000" points="300.0728,-221.675 295.662,-217.0974 296.2555,-223.4266 300.0728,-221.675"/>
</g>
<!-- m_Organization&#45;&gt;m_UserOrganization -->
<g id="edge9" class="edge">
<title>m_Organization&#45;&gt;m_UserOrganization</title>
<path fill="none" stroke="#000000" d="M396.1848,-245.3915C409.335,-225.9521 422.8608,-205.9573 433.9792,-189.5215"/>
<ellipse fill="none" stroke="#000000" cx="394.8056" cy="-247.4302" rx="2.4" ry="2.4"/>
<ellipse fill="#000000" stroke="#000000" cx="438.8815" cy="-182.2746" rx="2.4" ry="2.4"/>
<polygon fill="#000000" stroke="#000000" points="435.9143,-190.4088 437.5368,-184.2624 432.4355,-188.0555 435.9143,-190.4088"/>
</g>
<!-- m_Project&#45;&gt;m_User -->
<g id="edge14" class="edge">
<title>m_Project&#45;&gt;m_User</title>
<path fill="none" stroke="#000000" stroke-dasharray="1,5" d="M361.9438,-207.3944C365.3418,-209.2921 368.7095,-211.1654 372.0231,-213 411.891,-235.0723 456.4554,-259.0698 493.738,-278.9587"/>
<ellipse fill="none" stroke="#000000" cx="359.388" cy="-205.9646" rx="2.4" ry="2.4"/>
<ellipse fill="none" stroke="#000000" cx="501.4319" cy="-283.0591" rx="2.4" ry="2.4"/>
<polygon fill="#000000" stroke="#000000" points="493.0312,-280.9616 499.3139,-281.9303 495.0066,-277.2551 493.0312,-280.9616"/>
</g>
<!-- m_Project&#45;&gt;m_UserProject -->
<g id="edge13" class="edge">
<title>m_Project&#45;&gt;m_UserProject</title>
<path fill="none" stroke="#000000" d="M266.0231,-87.633C266.0231,-80.4544 266.0231,-73.3223 266.0231,-66.6195"/>
<ellipse fill="none" stroke="#000000" cx="266.0232" cy="-90.0381" rx="2.4" ry="2.4"/>
<ellipse fill="#000000" stroke="#000000" cx="266.0232" cy="-58.2119" rx="2.4" ry="2.4"/>
<polygon fill="#000000" stroke="#000000" points="268.1232,-66.6119 266.0232,-60.6119 263.9232,-66.6119 268.1232,-66.6119"/>
</g>
<!-- m_SupportedLanguage&#45;&gt;m_Project -->
<g id="edge12" class="edge">
<title>m_SupportedLanguage&#45;&gt;m_Project</title>
<path fill="none" stroke="#000000" d="M152.4804,-277.8393C168.313,-260.3618 186.8292,-239.9219 204.2602,-220.6799"/>
<ellipse fill="none" stroke="#000000" cx="150.5213" cy="-280.0021" rx="2.4" ry="2.4"/>
<ellipse fill="#000000" stroke="#000000" cx="210.0419" cy="-214.2975" rx="2.4" ry="2.4"/>
<polygon fill="#000000" stroke="#000000" points="205.9587,-221.9328 208.4306,-216.0762 202.846,-219.1131 205.9587,-221.9328"/>
</g>
<!-- m_User&#45;&gt;m_Onboard -->
<g id="edge8" class="edge">
<title>m_User&#45;&gt;m_Onboard</title>
<path fill="none" stroke="#000000" d="M624.2528,-251.8187C635.2393,-235.7177 646.7074,-218.911 657.0185,-203.7998"/>
<ellipse fill="none" stroke="#000000" cx="622.8892" cy="-253.817" rx="2.4" ry="2.4"/>
<ellipse fill="#000000" stroke="#000000" cx="658.542" cy="-201.5671" rx="2.4" ry="2.4"/>
</g>
<!-- m_User&#45;&gt;m_UserOrganization -->
<g id="edge15" class="edge">
<title>m_User&#45;&gt;m_UserOrganization</title>
<path fill="none" stroke="#000000" d="M527.355,-251.7857C512.6393,-230.4038 497.069,-207.7804 484.5141,-189.5381"/>
<ellipse fill="none" stroke="#000000" cx="528.7568" cy="-253.8224" rx="2.4" ry="2.4"/>
<ellipse fill="#000000" stroke="#000000" cx="479.6047" cy="-182.4048" rx="2.4" ry="2.4"/>
<polygon fill="#000000" stroke="#000000" points="486.0969,-188.1338 480.9653,-184.3818 482.6371,-190.5149 486.0969,-188.1338"/>
</g>
<!-- m_User&#45;&gt;m_UserProject -->
<g id="edge16" class="edge">
<title>m_User&#45;&gt;m_UserProject</title>
<path fill="none" stroke="#000000" d="M586.426,-250.9664C589.5591,-200.3868 584.4804,-134.3081 546.0231,-92 519.9028,-63.2641 421.919,-45.8041 349.1864,-36.5363"/>
<ellipse fill="none" stroke="#000000" cx="586.2601" cy="-253.417" rx="2.4" ry="2.4"/>
<ellipse fill="#000000" stroke="#000000" cx="340.5798" cy="-35.4688" rx="2.4" ry="2.4"/>
<polygon fill="#000000" stroke="#000000" points="349.1745,-34.4188 342.9616,-35.7642 348.6574,-38.5868 349.1745,-34.4188"/>
</g>
</g>
</svg>
