<?xml version="1.0" encoding="UTF-8" standalone="no"?>
<!DOCTYPE svg PUBLIC "-//W3C//DTD SVG 1.1//EN"
 "http://www.w3.org/Graphics/SVG/1.1/DTD/svg11.dtd">
<!-- Generated by graphviz version 2.40.1 (20161225.0304)
 -->
<!-- Title: models_diagram Pages: 1 -->
<svg width="528pt" height="476pt"
 viewBox="0.00 0.00 528.33 476.00" xmlns="http://www.w3.org/2000/svg" xmlns:xlink="http://www.w3.org/1999/xlink">
<g id="graph0" class="graph" transform="scale(1 1) rotate(0) translate(4 472)">
<title>models_diagram</title>
<polygon fill="transparent" stroke="transparent" points="-4,4 -4,-472 524.3252,-472 524.3252,4 -4,4"/>
<!-- ApplicationRecord -->
<g id="node1" class="node">
<title>ApplicationRecord</title>
<ellipse fill="none" stroke="#000000" cx="233" cy="-450" rx="77.2916" ry="18"/>
<text text-anchor="middle" x="233" y="-445.8" font-family="Times,serif" font-size="14.00" fill="#000000">ApplicationRecord</text>
</g>
<!-- Onboard -->
<g id="node2" class="node">
<title>Onboard</title>
<ellipse fill="none" stroke="#000000" cx="164" cy="-378" rx="41.1007" ry="18"/>
<text text-anchor="middle" x="164" y="-373.8" font-family="Times,serif" font-size="14.00" fill="#000000">Onboard</text>
</g>
<!-- ApplicationRecord&#45;&gt;Onboard -->
<g id="edge2" class="edge">
<title>ApplicationRecord&#45;&gt;Onboard</title>
<path fill="none" stroke="#000000" d="M215.9438,-432.2022C204.9292,-420.7088 190.6955,-405.8561 179.9139,-394.6058"/>
</g>
<!-- Organization -->
<g id="node3" class="node">
<title>Organization</title>
<ellipse fill="none" stroke="#000000" cx="140" cy="-90" rx="56.2326" ry="18"/>
<text text-anchor="middle" x="140" y="-85.8" font-family="Times,serif" font-size="14.00" fill="#000000">Organization</text>
</g>
<!-- ApplicationRecord&#45;&gt;Organization -->
<g id="edge6" class="edge">
<title>ApplicationRecord&#45;&gt;Organization</title>
<path fill="none" stroke="#000000" d="M170.5603,-439.2556C101.5429,-423.3792 0,-386.3651 0,-306 0,-306 0,-306 0,-234 0,-172.2841 66.926,-127.0716 108.2318,-105.0442"/>
</g>
<!-- Project -->
<g id="node4" class="node">
<title>Project</title>
<ellipse fill="none" stroke="#000000" cx="212" cy="-162" rx="35.3129" ry="18"/>
<text text-anchor="middle" x="212" y="-157.8" font-family="Times,serif" font-size="14.00" fill="#000000">Project</text>
</g>
<!-- ApplicationRecord&#45;&gt;Project -->
<g id="edge11" class="edge">
<title>ApplicationRecord&#45;&gt;Project</title>
<path fill="none" stroke="#000000" d="M242.7632,-432.0966C263.3927,-391.7048 306.844,-291.1602 273,-216 265.2764,-198.8476 249.1134,-184.9423 235.3648,-175.5399"/>
</g>
<!-- SupportedLanguage -->
<g id="node5" class="node">
<title>SupportedLanguage</title>
<ellipse fill="none" stroke="#000000" cx="439" cy="-90" rx="81.1508" ry="18"/>
<text text-anchor="middle" x="439" y="-85.8" font-family="Times,serif" font-size="14.00" fill="#000000">SupportedLanguage</text>
</g>
<!-- ApplicationRecord&#45;&gt;SupportedLanguage -->
<g id="edge13" class="edge">
<title>ApplicationRecord&#45;&gt;SupportedLanguage</title>
<path fill="none" stroke="#000000" d="M276.338,-434.9719C326.7048,-414.4177 403,-372.3346 403,-306 403,-306 403,-306 403,-234 403,-187.6151 420.7979,-135.2675 431.3653,-108.2743"/>
</g>
<!-- User -->
<g id="node6" class="node">
<title>User</title>
<ellipse fill="none" stroke="#000000" cx="132" cy="-306" rx="27" ry="18"/>
<text text-anchor="middle" x="132" y="-301.8" font-family="Times,serif" font-size="14.00" fill="#000000">User</text>
</g>
<!-- ApplicationRecord&#45;&gt;User -->
<g id="edge17" class="edge">
<title>ApplicationRecord&#45;&gt;User</title>
<path fill="none" stroke="#000000" d="M174.8443,-438.0266C151.8244,-430.1325 127.6404,-417.1688 114,-396 99.5864,-373.6311 111.638,-342.1469 121.7597,-322.9592"/>
</g>
<!-- UserOrganization -->
<g id="node7" class="node">
<title>UserOrganization</title>
<ellipse fill="none" stroke="#000000" cx="140" cy="-18" rx="72.629" ry="18"/>
<text text-anchor="middle" x="140" y="-13.8" font-family="Times,serif" font-size="14.00" fill="#000000">UserOrganization</text>
</g>
<!-- ApplicationRecord&#45;&gt;UserOrganization -->
<g id="edge20" class="edge">
<title>ApplicationRecord&#45;&gt;UserOrganization</title>
<path fill="none" stroke="#000000" d="M255.0108,-432.5666C283.6299,-407.7669 330,-359.3529 330,-306 330,-306 330,-306 330,-162 330,-91.0172 244.7289,-50.5137 188.4366,-31.5088"/>
</g>
<!-- UserProject -->
<g id="node8" class="node">
<title>UserProject</title>
<ellipse fill="none" stroke="#000000" cx="212" cy="-234" rx="51.7088" ry="18"/>
<text text-anchor="middle" x="212" y="-229.8" font-family="Times,serif" font-size="14.00" fill="#000000">UserProject</text>
</g>
<!-- ApplicationRecord&#45;&gt;UserProject -->
<g id="edge23" class="edge">
<title>ApplicationRecord&#45;&gt;UserProject</title>
<path fill="none" stroke="#000000" d="M231.2457,-431.9555C227.2927,-391.2967 217.7263,-292.8988 213.7641,-252.1451"/>
</g>
<!-- Onboard&#45;&gt;User -->
<g id="edge1" class="edge">
<title>Onboard&#45;&gt;User</title>
<path fill="none" stroke="#35f855" d="M150.5765,-360.937C146.1043,-352.8137 141.4449,-342.892 137.734,-333.7267"/>
<polygon fill="#35f855" stroke="#35f855" points="140.9425,-332.316 134.1332,-324.1992 134.3946,-334.7908 140.9425,-332.316"/>
</g>
<!-- Organization&#45;&gt;Project -->
<g id="edge5" class="edge">
<title>Organization&#45;&gt;Project</title>
<path fill="none" stroke="#b6678f" d="M168.8399,-112.5288C177.3142,-120.4622 186.3084,-129.4154 193.9371,-137.5032"/>
<ellipse fill="none" stroke="#b6678f" cx="165.4366" cy="-109.3996" rx="4" ry="4"/>
<polygon fill="#b6678f" stroke="#b6678f" points="194.0059,-137.578 197.4654,-147.9839 197.3914,-141.2575 200.7769,-144.937 200.7769,-144.937 200.7769,-144.937 197.3914,-141.2575 204.0885,-141.8901 194.0059,-137.578 194.0059,-137.578"/>
</g>
<!-- Organization&#45;&gt;User -->
<g id="edge4" class="edge">
<title>Organization&#45;&gt;User</title>
<path fill="none" stroke="#b9e119" d="M138.4388,-118.4528C137.0871,-143.9848 135.1701,-182.4864 134,-216 133.2819,-236.5663 132.7734,-259.7857 132.4489,-277.4882"/>
<polygon fill="#b9e119" stroke="#b9e119" points="138.4447,-118.3426 143.4733,-108.5977 138.7122,-113.3497 138.9797,-108.3569 138.9797,-108.3569 138.9797,-108.3569 138.7122,-113.3497 134.4862,-108.1161 138.4447,-118.3426 138.4447,-118.3426"/>
<polygon fill="#b9e119" stroke="#b9e119" points="132.4448,-277.7261 127.771,-287.6461 132.3576,-282.7254 132.2704,-287.7246 132.2704,-287.7246 132.2704,-287.7246 132.3576,-282.7254 136.7697,-287.8031 132.4448,-277.7261 132.4448,-277.7261"/>
</g>
<!-- Organization&#45;&gt;UserOrganization -->
<g id="edge3" class="edge">
<title>Organization&#45;&gt;UserOrganization</title>
<path fill="none" stroke="#6b8d85" d="M133.4781,-63.8144C133.2147,-58.2775 133.1794,-52.4053 133.3722,-46.7785"/>
<ellipse fill="none" stroke="#6b8d85" cx="133.7641" cy="-67.8414" rx="4" ry="4"/>
<polygon fill="#6b8d85" stroke="#6b8d85" points="133.3963,-46.3936 138.5151,-36.6957 133.7101,-41.4034 134.024,-36.4133 134.024,-36.4133 134.024,-36.4133 133.7101,-41.4034 129.5329,-36.1308 133.3963,-46.3936 133.3963,-46.3936"/>
</g>
<!-- Project&#45;&gt;Organization -->
<g id="edge7" class="edge">
<title>Project&#45;&gt;Organization</title>
<path fill="none" stroke="#f1199d" d="M191.4888,-147.0816C181.1233,-137.8672 168.7717,-125.8079 158.679,-115.1487"/>
<polygon fill="#f1199d" stroke="#f1199d" points="161.1478,-112.6633 151.7899,-107.6953 156.0073,-117.4146 161.1478,-112.6633"/>
</g>
<!-- Project&#45;&gt;SupportedLanguage -->
<g id="edge8" class="edge">
<title>Project&#45;&gt;SupportedLanguage</title>
<path fill="none" stroke="#34ab39" d="M242.1438,-152.439C277.7988,-141.1299 337.9131,-122.0628 382.3519,-107.9677"/>
<polygon fill="#34ab39" stroke="#34ab39" points="383.6745,-111.2201 392.1483,-104.8605 381.5581,-104.5477 383.6745,-111.2201"/>
</g>
<!-- Project&#45;&gt;User -->
<g id="edge10" class="edge">
<title>Project&#45;&gt;User</title>
<path fill="none" stroke="#7841ee" d="M181.8059,-182.2865C170.5238,-191.3359 158.6147,-202.9177 151,-216 140.0539,-234.8058 135.3774,-259.0894 133.3974,-277.6919"/>
<polygon fill="#7841ee" stroke="#7841ee" points="181.8883,-182.2237 192.5687,-179.7377 185.864,-179.1916 189.8398,-176.1595 189.8398,-176.1595 189.8398,-176.1595 185.864,-179.1916 187.1109,-172.5814 181.8883,-182.2237 181.8883,-182.2237"/>
<polygon fill="#7841ee" stroke="#7841ee" points="133.376,-277.9409 128.0329,-287.517 132.9462,-282.9224 132.5163,-287.9039 132.5163,-287.9039 132.5163,-287.9039 132.9462,-282.9224 136.9996,-288.2908 133.376,-277.9409 133.376,-277.9409"/>
</g>
<!-- Project&#45;&gt;UserProject -->
<g id="edge9" class="edge">
<title>Project&#45;&gt;UserProject</title>
<path fill="none" stroke="#62b629" d="M218.5127,-187.9941C218.792,-193.742 218.8247,-199.8594 218.6111,-205.6941"/>
<ellipse fill="none" stroke="#62b629" cx="218.2164" cy="-183.903" rx="4" ry="4"/>
<polygon fill="#62b629" stroke="#62b629" points="218.6009,-205.8524 213.4619,-215.5395 218.2766,-210.8419 217.9524,-215.8314 217.9524,-215.8314 217.9524,-215.8314 218.2766,-210.8419 222.4429,-216.1232 218.6009,-205.8524 218.6009,-205.8524"/>
</g>
<!-- Application -->
<g id="node9" class="node">
<title>Application</title>
<ellipse fill="none" stroke="#000000" cx="439" cy="-18" rx="51.7174" ry="18"/>
<text text-anchor="middle" x="439" y="-13.8" font-family="Times,serif" font-size="14.00" fill="#000000">Application</text>
</g>
<!-- SupportedLanguage&#45;&gt;Application -->
<g id="edge12" class="edge">
<title>SupportedLanguage&#45;&gt;Application</title>
<path fill="none" stroke="#7f2435" d="M439,-63.8144C439,-58.2775 439,-52.4053 439,-46.7785"/>
<ellipse fill="none" stroke="#7f2435" cx="439" cy="-67.8314" rx="4" ry="4"/>
<polygon fill="#7f2435" stroke="#7f2435" points="439.0001,-46.4133 443.5,-36.4132 439,-41.4133 439,-36.4133 439,-36.4133 439,-36.4133 439,-41.4133 434.5,-36.4133 439.0001,-46.4133 439.0001,-46.4133"/>
</g>
<!-- User&#45;&gt;Onboard -->
<g id="edge14" class="edge">
<title>User&#45;&gt;Onboard</title>
<path fill="none" stroke="#12a593" d="M148.787,-329.437C152.4565,-336.6711 156.0619,-344.679 158.9855,-352.0709"/>
<ellipse fill="none" stroke="#12a593" cx="146.6874" cy="-325.4885" rx="4" ry="4"/>
<ellipse fill="#12a593" stroke="#12a593" cx="160.4806" cy="-356.0832" rx="4" ry="4"/>
</g>
<!-- User&#45;&gt;UserOrganization -->
<g id="edge15" class="edge">
<title>User&#45;&gt;UserOrganization</title>
<path fill="none" stroke="#3aed0f" d="M112.3084,-284.2072C81.8937,-241.6677 31.5886,-145.3251 66,-72 72.1189,-58.9617 83.1037,-47.9821 94.8301,-39.3997"/>
<ellipse fill="none" stroke="#3aed0f" cx="114.8059" cy="-287.5826" rx="4" ry="4"/>
<polygon fill="#3aed0f" stroke="#3aed0f" points="95.1561,-39.1793 105.961,-37.307 99.2985,-36.3791 103.4408,-33.5789 103.4408,-33.5789 103.4408,-33.5789 99.2985,-36.3791 100.9206,-29.8508 95.1561,-39.1793 95.1561,-39.1793"/>
</g>
<!-- User&#45;&gt;UserProject -->
<g id="edge16" class="edge">
<title>User&#45;&gt;UserProject</title>
<path fill="none" stroke="#8e0595" d="M150.3026,-283.8728C159.2054,-275.3164 170.0664,-265.5257 180.2223,-256.8977"/>
<ellipse fill="none" stroke="#8e0595" cx="147.2499" cy="-286.863" rx="4" ry="4"/>
<polygon fill="#8e0595" stroke="#8e0595" points="180.4854,-256.6782 191.0473,-253.7291 184.3252,-253.4758 188.1651,-250.2733 188.1651,-250.2733 188.1651,-250.2733 184.3252,-253.4758 185.2828,-246.8174 180.4854,-256.6782 180.4854,-256.6782"/>
</g>
<!-- UserOrganization&#45;&gt;Organization -->
<g id="edge19" class="edge">
<title>UserOrganization&#45;&gt;Organization</title>
<path fill="none" stroke="#856a18" d="M145.976,-36.4133C146.7071,-44.0593 146.9203,-53.1084 146.6155,-61.5726"/>
<polygon fill="#856a18" stroke="#856a18" points="143.1048,-61.6264 145.9524,-71.8314 150.0902,-62.078 143.1048,-61.6264"/>
</g>
<!-- UserOrganization&#45;&gt;User -->
<g id="edge18" class="edge">
<title>UserOrganization&#45;&gt;User</title>
<path fill="none" stroke="#58e472" d="M117.2732,-35.1992C105.0125,-44.2785 91.1677,-56.7267 84,-72 50.8182,-142.705 96.4069,-234.812 119.984,-279.4445"/>
<polygon fill="#58e472" stroke="#58e472" points="116.998,-281.2841 124.7786,-288.4752 123.1806,-278.0016 116.998,-281.2841"/>
</g>
<!-- UserProject&#45;&gt;Project -->
<g id="edge22" class="edge">
<title>UserProject&#45;&gt;Project</title>
<path fill="none" stroke="#e4ea0c" d="M206.0476,-215.8314C205.2856,-208.0125 205.0696,-198.6923 205.3995,-190.0221"/>
<polygon fill="#e4ea0c" stroke="#e4ea0c" points="208.9004,-190.1239 206.0727,-179.9134 201.9159,-189.6587 208.9004,-190.1239"/>
</g>
<!-- UserProject&#45;&gt;User -->
<g id="edge21" class="edge">
<title>UserProject&#45;&gt;User</title>
<path fill="none" stroke="#55fa66" d="M198.3109,-251.629C187.5794,-262.2594 172.5764,-275.8093 159.4749,-286.7229"/>
<polygon fill="#55fa66" stroke="#55fa66" points="157.1575,-284.0964 151.6183,-293.1278 161.5806,-289.5219 157.1575,-284.0964"/>
</g>
</g>
</svg>
