<?xml version="1.0" encoding="UTF-8" standalone="no"?>
<!DOCTYPE svg PUBLIC "-//W3C//DTD SVG 1.1//EN"
 "http://www.w3.org/Graphics/SVG/1.1/DTD/svg11.dtd">
<!-- Generated by graphviz version 2.40.1 (20161225.0304)
 -->
<!-- Title: models_diagram Pages: 1 -->
<svg width="621pt" height="908pt"
 viewBox="0.00 0.00 621.13 908.00" xmlns="http://www.w3.org/2000/svg" xmlns:xlink="http://www.w3.org/1999/xlink">
<g id="graph0" class="graph" transform="scale(1 1) rotate(0) translate(4 904)">
<title>models_diagram</title>
<polygon fill="transparent" stroke="transparent" points="-4,4 -4,-904 617.1298,-904 617.1298,4 -4,4"/>
<!-- ApplicationRecord -->
<g id="node1" class="node">
<title>ApplicationRecord</title>
<ellipse fill="none" stroke="#000000" cx="349.557" cy="-882" rx="77.2916" ry="18"/>
<text text-anchor="middle" x="349.557" y="-877.8" font-family="Times,serif" font-size="14.00" fill="#000000">ApplicationRecord</text>
</g>
<!-- Onboard -->
<g id="node2" class="node">
<title>Onboard</title>
<path fill="none" stroke="#000000" d="M85.6947,-727.5C85.6947,-727.5 309.4193,-727.5 309.4193,-727.5 315.4193,-727.5 321.4193,-733.5 321.4193,-739.5 321.4193,-739.5 321.4193,-815.5 321.4193,-815.5 321.4193,-821.5 315.4193,-827.5 309.4193,-827.5 309.4193,-827.5 85.6947,-827.5 85.6947,-827.5 79.6947,-827.5 73.6947,-821.5 73.6947,-815.5 73.6947,-815.5 73.6947,-739.5 73.6947,-739.5 73.6947,-733.5 79.6947,-727.5 85.6947,-727.5"/>
<text text-anchor="middle" x="197.557" y="-812.3" font-family="Times,serif" font-size="14.00" fill="#000000">Onboard</text>
<polyline fill="none" stroke="#000000" points="73.6947,-805.5 321.4193,-805.5 "/>
<text text-anchor="start" x="81.6947" y="-790.3" font-family="Times,serif" font-size="14.00" fill="#000000">created_at :timestamp without time zone</text>
<text text-anchor="start" x="81.6947" y="-776.3" font-family="Times,serif" font-size="14.00" fill="#000000">id :bigint</text>
<text text-anchor="start" x="81.6947" y="-762.3" font-family="Times,serif" font-size="14.00" fill="#000000">state :character varying</text>
<text text-anchor="start" x="81.6947" y="-748.3" font-family="Times,serif" font-size="14.00" fill="#000000">updated_at :timestamp without time zone</text>
<text text-anchor="start" x="81.6947" y="-734.3" font-family="Times,serif" font-size="14.00" fill="#000000">user_id :bigint</text>
</g>
<!-- ApplicationRecord&#45;&gt;Onboard -->
<g id="edge2" class="edge">
<title>ApplicationRecord&#45;&gt;Onboard</title>
<path fill="none" stroke="#000000" d="M324.4573,-864.744C309.6168,-854.5411 289.9841,-841.0436 270.6075,-827.7222"/>
</g>
<!-- Organization -->
<g id="node3" class="node">
<title>Organization</title>
<path fill="none" stroke="#000000" d="M127.6947,-95.5C127.6947,-95.5 351.4193,-95.5 351.4193,-95.5 357.4193,-95.5 363.4193,-101.5 363.4193,-107.5 363.4193,-107.5 363.4193,-239.5 363.4193,-239.5 363.4193,-245.5 357.4193,-251.5 351.4193,-251.5 351.4193,-251.5 127.6947,-251.5 127.6947,-251.5 121.6947,-251.5 115.6947,-245.5 115.6947,-239.5 115.6947,-239.5 115.6947,-107.5 115.6947,-107.5 115.6947,-101.5 121.6947,-95.5 127.6947,-95.5"/>
<text text-anchor="middle" x="239.557" y="-236.3" font-family="Times,serif" font-size="14.00" fill="#000000">Organization</text>
<polyline fill="none" stroke="#000000" points="115.6947,-229.5 363.4193,-229.5 "/>
<text text-anchor="start" x="123.6947" y="-214.3" font-family="Times,serif" font-size="14.00" fill="#000000">created_at :timestamp without time zone</text>
<text text-anchor="start" x="123.6947" y="-200.3" font-family="Times,serif" font-size="14.00" fill="#000000">default :boolean</text>
<text text-anchor="start" x="123.6947" y="-186.3" font-family="Times,serif" font-size="14.00" fill="#000000">id :bigint</text>
<text text-anchor="start" x="123.6947" y="-172.3" font-family="Times,serif" font-size="14.00" fill="#000000">industry :character varying</text>
<text text-anchor="start" x="123.6947" y="-158.3" font-family="Times,serif" font-size="14.00" fill="#000000">name :character varying</text>
<text text-anchor="start" x="123.6947" y="-144.3" font-family="Times,serif" font-size="14.00" fill="#000000">size :character varying</text>
<text text-anchor="start" x="123.6947" y="-130.3" font-family="Times,serif" font-size="14.00" fill="#000000">slug :character varying</text>
<text text-anchor="start" x="123.6947" y="-116.3" font-family="Times,serif" font-size="14.00" fill="#000000">updated_at :timestamp without time zone</text>
<text text-anchor="start" x="123.6947" y="-102.3" font-family="Times,serif" font-size="14.00" fill="#000000">website :character varying</text>
</g>
<!-- ApplicationRecord&#45;&gt;Organization -->
<g id="edge6" class="edge">
<title>ApplicationRecord&#45;&gt;Organization</title>
<path fill="none" stroke="#000000" d="M273.4087,-878.444C193.1662,-873.0445 74.0987,-859.7887 42.557,-828 -23.6254,-761.2994 7.557,-713.4632 7.557,-619.5 7.557,-619.5 7.557,-619.5 7.557,-482.5 7.557,-390.2604 74.4859,-307.964 136.4474,-251.5395"/>
</g>
<!-- Project -->
<g id="node4" class="node">
<title>Project</title>
<path fill="none" stroke="#000000" d="M165.6947,-288.5C165.6947,-288.5 389.4193,-288.5 389.4193,-288.5 395.4193,-288.5 401.4193,-294.5 401.4193,-300.5 401.4193,-300.5 401.4193,-404.5 401.4193,-404.5 401.4193,-410.5 395.4193,-416.5 389.4193,-416.5 389.4193,-416.5 165.6947,-416.5 165.6947,-416.5 159.6947,-416.5 153.6947,-410.5 153.6947,-404.5 153.6947,-404.5 153.6947,-300.5 153.6947,-300.5 153.6947,-294.5 159.6947,-288.5 165.6947,-288.5"/>
<text text-anchor="middle" x="277.557" y="-401.3" font-family="Times,serif" font-size="14.00" fill="#000000">Project</text>
<polyline fill="none" stroke="#000000" points="153.6947,-394.5 401.4193,-394.5 "/>
<text text-anchor="start" x="161.6947" y="-379.3" font-family="Times,serif" font-size="14.00" fill="#000000">created_at :timestamp without time zone</text>
<text text-anchor="start" x="161.6947" y="-365.3" font-family="Times,serif" font-size="14.00" fill="#000000">id :bigint</text>
<text text-anchor="start" x="161.6947" y="-351.3" font-family="Times,serif" font-size="14.00" fill="#000000">name :character varying</text>
<text text-anchor="start" x="161.6947" y="-337.3" font-family="Times,serif" font-size="14.00" fill="#000000">organization_id :bigint</text>
<text text-anchor="start" x="161.6947" y="-323.3" font-family="Times,serif" font-size="14.00" fill="#000000">slug :character varying</text>
<text text-anchor="start" x="161.6947" y="-309.3" font-family="Times,serif" font-size="14.00" fill="#000000">supported_language_id :bigint</text>
<text text-anchor="start" x="161.6947" y="-295.3" font-family="Times,serif" font-size="14.00" fill="#000000">updated_at :timestamp without time zone</text>
</g>
<!-- ApplicationRecord&#45;&gt;Project -->
<g id="edge11" class="edge">
<title>ApplicationRecord&#45;&gt;Project</title>
<path fill="none" stroke="#000000" d="M358.0721,-863.9594C362.4549,-853.6742 367.3346,-840.3991 369.557,-828 377.4765,-783.8152 371.4329,-771.8497 369.557,-727 364.4433,-604.7393 384.5021,-567.954 342.557,-453 338.0697,-440.7022 331.8545,-428.3707 325.0335,-416.767"/>
</g>
<!-- SupportedLanguage -->
<g id="node5" class="node">
<title>SupportedLanguage</title>
<path fill="none" stroke="#000000" d="M469.9843,-130.5C469.9843,-130.5 601.1298,-130.5 601.1298,-130.5 607.1298,-130.5 613.1298,-136.5 613.1298,-142.5 613.1298,-142.5 613.1298,-204.5 613.1298,-204.5 613.1298,-210.5 607.1298,-216.5 601.1298,-216.5 601.1298,-216.5 469.9843,-216.5 469.9843,-216.5 463.9843,-216.5 457.9843,-210.5 457.9843,-204.5 457.9843,-204.5 457.9843,-142.5 457.9843,-142.5 457.9843,-136.5 463.9843,-130.5 469.9843,-130.5"/>
<text text-anchor="middle" x="535.557" y="-201.3" font-family="Times,serif" font-size="14.00" fill="#000000">SupportedLanguage</text>
<polyline fill="none" stroke="#000000" points="457.9843,-194.5 613.1298,-194.5 "/>
<text text-anchor="start" x="465.9843" y="-179.3" font-family="Times,serif" font-size="14.00" fill="#000000">active :boolean</text>
<text text-anchor="start" x="465.9843" y="-165.3" font-family="Times,serif" font-size="14.00" fill="#000000">id :bigint</text>
<text text-anchor="start" x="465.9843" y="-151.3" font-family="Times,serif" font-size="14.00" fill="#000000">image :character varying</text>
<text text-anchor="start" x="465.9843" y="-137.3" font-family="Times,serif" font-size="14.00" fill="#000000">name :character varying</text>
</g>
<!-- ApplicationRecord&#45;&gt;SupportedLanguage -->
<g id="edge13" class="edge">
<title>ApplicationRecord&#45;&gt;SupportedLanguage</title>
<path fill="none" stroke="#000000" d="M391.1321,-866.6845C409.6099,-857.9464 430.1656,-845.2425 443.557,-828 502.5556,-752.0344 501.557,-715.6853 501.557,-619.5 501.557,-619.5 501.557,-619.5 501.557,-482.5 501.557,-387.1087 517.7646,-276.1412 527.7993,-216.5784"/>
</g>
<!-- User -->
<g id="node6" class="node">
<title>User</title>
<path fill="none" stroke="#000000" d="M81.6947,-548.5C81.6947,-548.5 305.4193,-548.5 305.4193,-548.5 311.4193,-548.5 317.4193,-554.5 317.4193,-560.5 317.4193,-560.5 317.4193,-678.5 317.4193,-678.5 317.4193,-684.5 311.4193,-690.5 305.4193,-690.5 305.4193,-690.5 81.6947,-690.5 81.6947,-690.5 75.6947,-690.5 69.6947,-684.5 69.6947,-678.5 69.6947,-678.5 69.6947,-560.5 69.6947,-560.5 69.6947,-554.5 75.6947,-548.5 81.6947,-548.5"/>
<text text-anchor="middle" x="193.557" y="-675.3" font-family="Times,serif" font-size="14.00" fill="#000000">User</text>
<polyline fill="none" stroke="#000000" points="69.6947,-668.5 317.4193,-668.5 "/>
<text text-anchor="start" x="77.6947" y="-653.3" font-family="Times,serif" font-size="14.00" fill="#000000">created_at :timestamp without time zone</text>
<text text-anchor="start" x="77.6947" y="-639.3" font-family="Times,serif" font-size="14.00" fill="#000000">crypted_password :character varying</text>
<text text-anchor="start" x="77.6947" y="-625.3" font-family="Times,serif" font-size="14.00" fill="#000000">email :character varying</text>
<text text-anchor="start" x="77.6947" y="-611.3" font-family="Times,serif" font-size="14.00" fill="#000000">id :bigint</text>
<text text-anchor="start" x="77.6947" y="-597.3" font-family="Times,serif" font-size="14.00" fill="#000000">name :character varying</text>
<text text-anchor="start" x="77.6947" y="-583.3" font-family="Times,serif" font-size="14.00" fill="#000000">salt :character varying</text>
<text text-anchor="start" x="77.6947" y="-569.3" font-family="Times,serif" font-size="14.00" fill="#000000">terms :boolean</text>
<text text-anchor="start" x="77.6947" y="-555.3" font-family="Times,serif" font-size="14.00" fill="#000000">updated_at :timestamp without time zone</text>
</g>
<!-- ApplicationRecord&#45;&gt;User -->
<g id="edge17" class="edge">
<title>ApplicationRecord&#45;&gt;User</title>
<path fill="none" stroke="#000000" d="M273.7195,-878.262C198.4574,-872.7759 90.6581,-859.511 64.557,-828 35.9223,-793.4303 45.5171,-767.6509 64.557,-727 70.7397,-713.7997 79.4282,-701.655 89.4079,-690.6571"/>
</g>
<!-- UserOrganization -->
<g id="node7" class="node">
<title>UserOrganization</title>
<path fill="none" stroke="#000000" d="M179.7196,-.5C179.7196,-.5 299.3944,-.5 299.3944,-.5 305.3944,-.5 311.3944,-6.5 311.3944,-12.5 311.3944,-12.5 311.3944,-46.5 311.3944,-46.5 311.3944,-52.5 305.3944,-58.5 299.3944,-58.5 299.3944,-58.5 179.7196,-58.5 179.7196,-58.5 173.7196,-58.5 167.7196,-52.5 167.7196,-46.5 167.7196,-46.5 167.7196,-12.5 167.7196,-12.5 167.7196,-6.5 173.7196,-.5 179.7196,-.5"/>
<text text-anchor="middle" x="239.557" y="-43.3" font-family="Times,serif" font-size="14.00" fill="#000000">UserOrganization</text>
<polyline fill="none" stroke="#000000" points="167.7196,-36.5 311.3944,-36.5 "/>
<text text-anchor="start" x="175.7196" y="-21.3" font-family="Times,serif" font-size="14.00" fill="#000000">organization_id :bigint</text>
<text text-anchor="start" x="175.7196" y="-7.3" font-family="Times,serif" font-size="14.00" fill="#000000">user_id :bigint</text>
</g>
<!-- ApplicationRecord&#45;&gt;UserOrganization -->
<g id="edge20" class="edge">
<title>ApplicationRecord&#45;&gt;UserOrganization</title>
<path fill="none" stroke="#000000" d="M363.6372,-863.9384C370.8635,-853.862 379.2413,-840.7928 384.557,-828 420.9336,-740.4566 429.557,-714.3004 429.557,-619.5 429.557,-619.5 429.557,-619.5 429.557,-352.5 429.557,-235.2852 444.9329,-187.2011 372.557,-95 357.0617,-75.2602 334.0773,-61.0556 311.556,-51.0332"/>
</g>
<!-- UserProject -->
<g id="node8" class="node">
<title>UserProject</title>
<path fill="none" stroke="#000000" d="M233.1483,-453.5C233.1483,-453.5 321.9657,-453.5 321.9657,-453.5 327.9657,-453.5 333.9657,-459.5 333.9657,-465.5 333.9657,-465.5 333.9657,-499.5 333.9657,-499.5 333.9657,-505.5 327.9657,-511.5 321.9657,-511.5 321.9657,-511.5 233.1483,-511.5 233.1483,-511.5 227.1483,-511.5 221.1483,-505.5 221.1483,-499.5 221.1483,-499.5 221.1483,-465.5 221.1483,-465.5 221.1483,-459.5 227.1483,-453.5 233.1483,-453.5"/>
<text text-anchor="middle" x="277.557" y="-496.3" font-family="Times,serif" font-size="14.00" fill="#000000">UserProject</text>
<polyline fill="none" stroke="#000000" points="221.1483,-489.5 333.9657,-489.5 "/>
<text text-anchor="start" x="229.1483" y="-474.3" font-family="Times,serif" font-size="14.00" fill="#000000">project_id :bigint</text>
<text text-anchor="start" x="229.1483" y="-460.3" font-family="Times,serif" font-size="14.00" fill="#000000">user_id :bigint</text>
</g>
<!-- ApplicationRecord&#45;&gt;UserProject -->
<g id="edge23" class="edge">
<title>ApplicationRecord&#45;&gt;UserProject</title>
<path fill="none" stroke="#000000" d="M351.7916,-863.8754C357.4129,-812.4333 368.8404,-661.8816 326.557,-548 321.7127,-534.9529 313.3966,-522.2963 304.9767,-511.6432"/>
</g>
<!-- Onboard&#45;&gt;User -->
<g id="edge1" class="edge">
<title>Onboard&#45;&gt;User</title>
<path fill="none" stroke="#71ba61" d="M189.9392,-727.0734C189.4759,-718.6744 189.1153,-709.7774 188.8689,-700.8404"/>
<polygon fill="#71ba61" stroke="#71ba61" points="192.3661,-700.6756 188.6399,-690.7576 185.3679,-700.8346 192.3661,-700.6756"/>
</g>
<!-- Organization&#45;&gt;Project -->
<g id="edge5" class="edge">
<title>Organization&#45;&gt;Project</title>
<path fill="none" stroke="#27a51f" d="M264.5681,-259.5406C265.9275,-265.8669 267.2468,-272.2162 268.4991,-278.462"/>
<ellipse fill="none" stroke="#27a51f" cx="263.6784" cy="-255.4575" rx="4" ry="4"/>
<polygon fill="#27a51f" stroke="#27a51f" points="268.5203,-278.5701 266.0326,-289.25 269.4842,-283.4763 270.4482,-288.3825 270.4482,-288.3825 270.4482,-288.3825 269.4842,-283.4763 274.8638,-287.5149 268.5203,-278.5701 268.5203,-278.5701"/>
</g>
<!-- Organization&#45;&gt;User -->
<g id="edge4" class="edge">
<title>Organization&#45;&gt;User</title>
<path fill="none" stroke="#2c44d5" d="M158.036,-260.1353C152.6539,-269.0859 148.0117,-278.4257 144.557,-288 114.8538,-370.3182 136.9759,-470.3536 160.2741,-538.8631"/>
<polygon fill="#2c44d5" stroke="#2c44d5" points="158.0463,-260.119 167.2068,-254.091 160.7273,-255.8986 163.4084,-251.6781 163.4084,-251.6781 163.4084,-251.6781 160.7273,-255.8986 159.6099,-249.2652 158.0463,-260.119 158.0463,-260.119"/>
<polygon fill="#2c44d5" stroke="#2c44d5" points="160.2769,-538.8714 159.3142,-549.7949 161.9205,-543.5935 163.5641,-548.3157 163.5641,-548.3157 163.5641,-548.3157 161.9205,-543.5935 167.814,-546.8364 160.2769,-538.8714 160.2769,-538.8714"/>
</g>
<!-- Organization&#45;&gt;UserOrganization -->
<g id="edge3" class="edge">
<title>Organization&#45;&gt;UserOrganization</title>
<path fill="none" stroke="#66c70f" d="M232.9307,-86.9675C233.0401,-80.6225 233.222,-74.4346 233.4765,-68.6122"/>
<ellipse fill="none" stroke="#66c70f" cx="232.8792" cy="-91.1794" rx="4" ry="4"/>
<polygon fill="#66c70f" stroke="#66c70f" points="233.4793,-68.5573 238.5064,-58.8116 233.7461,-63.5644 234.0128,-58.5715 234.0128,-58.5715 234.0128,-58.5715 233.7461,-63.5644 229.5192,-58.3314 233.4793,-68.5573 233.4793,-68.5573"/>
</g>
<!-- Project&#45;&gt;Organization -->
<g id="edge7" class="edge">
<title>Project&#45;&gt;Organization</title>
<path fill="none" stroke="#ac954e" d="M257.4428,-288.3825C255.4065,-279.6157 253.3881,-270.4948 251.4674,-261.396"/>
<polygon fill="#ac954e" stroke="#ac954e" points="254.8832,-260.6302 249.4255,-251.5492 248.029,-262.0516 254.8832,-260.6302"/>
</g>
<!-- Project&#45;&gt;SupportedLanguage -->
<g id="edge8" class="edge">
<title>Project&#45;&gt;SupportedLanguage</title>
<path fill="none" stroke="#261dab" d="M369.9722,-288.3825C401.1614,-266.7435 435.461,-242.9464 464.7143,-222.6506"/>
<polygon fill="#261dab" stroke="#261dab" points="467.0009,-225.3241 473.2219,-216.748 463.0106,-219.5727 467.0009,-225.3241"/>
</g>
<!-- Project&#45;&gt;User -->
<g id="edge10" class="edge">
<title>Project&#45;&gt;User</title>
<path fill="none" stroke="#a4cd8e" d="M224.9851,-425.5543C220.1694,-434.5016 215.8669,-443.7566 212.557,-453 202.948,-479.8343 197.9109,-510.5144 195.3538,-538.1669"/>
<polygon fill="#a4cd8e" stroke="#a4cd8e" points="225.0512,-425.4368 233.8762,-418.9277 227.5027,-421.0791 229.9543,-416.7213 229.9543,-416.7213 229.9543,-416.7213 227.5027,-421.0791 226.0323,-414.5149 225.0512,-425.4368 225.0512,-425.4368"/>
<polygon fill="#a4cd8e" stroke="#a4cd8e" points="195.3479,-538.2392 190.0355,-547.8324 194.934,-543.2221 194.5201,-548.2049 194.5201,-548.2049 194.5201,-548.2049 194.934,-543.2221 199.0046,-548.5774 195.3479,-538.2392 195.3479,-538.2392"/>
</g>
<!-- Project&#45;&gt;UserProject -->
<g id="edge9" class="edge">
<title>Project&#45;&gt;UserProject</title>
<path fill="none" stroke="#9db5c9" d="M284.2702,-424.6853C284.2053,-431.0043 284.0543,-437.2315 283.8174,-443.1243"/>
<ellipse fill="none" stroke="#9db5c9" cx="284.2884" cy="-420.6505" rx="4" ry="4"/>
<polygon fill="#9db5c9" stroke="#9db5c9" points="283.8066,-443.3384 278.8034,-453.0964 283.552,-448.3319 283.2975,-453.3255 283.2975,-453.3255 283.2975,-453.3255 283.552,-448.3319 287.7917,-453.5545 283.8066,-443.3384 283.8066,-443.3384"/>
</g>
<!-- Application -->
<g id="node9" class="node">
<title>Application</title>
<ellipse fill="none" stroke="#000000" cx="535.557" cy="-29.5" rx="51.7174" ry="18"/>
<text text-anchor="middle" x="535.557" y="-25.3" font-family="Times,serif" font-size="14.00" fill="#000000">Application</text>
</g>
<!-- SupportedLanguage&#45;&gt;Application -->
<g id="edge12" class="edge">
<title>SupportedLanguage&#45;&gt;Application</title>
<path fill="none" stroke="#3e90dc" d="M535.557,-122.0137C535.557,-100.2899 535.557,-75.8477 535.557,-57.5445"/>
<ellipse fill="none" stroke="#3e90dc" cx="535.5571" cy="-126.2953" rx="4" ry="4"/>
<polygon fill="#3e90dc" stroke="#3e90dc" points="535.5571,-57.5441 540.057,-47.5441 535.5571,-52.5441 535.557,-47.5441 535.557,-47.5441 535.557,-47.5441 535.5571,-52.5441 531.057,-47.5442 535.5571,-57.5441 535.5571,-57.5441"/>
</g>
<!-- User&#45;&gt;Onboard -->
<g id="edge14" class="edge">
<title>User&#45;&gt;Onboard</title>
<path fill="none" stroke="#f5758e" d="M202.3229,-699.1373C202.4866,-705.7613 202.5868,-712.3794 202.6189,-718.8052"/>
<ellipse fill="none" stroke="#f5758e" cx="202.1971" cy="-694.756" rx="4" ry="4"/>
<ellipse fill="#f5758e" stroke="#f5758e" cx="202.6202" cy="-723.0734" rx="4" ry="4"/>
</g>
<!-- User&#45;&gt;UserOrganization -->
<g id="edge15" class="edge">
<title>User&#45;&gt;UserOrganization</title>
<path fill="none" stroke="#84d68a" d="M137.9305,-541.0496C133.4997,-531.4901 129.5817,-521.6776 126.557,-512 71.1359,-334.6781 -.5901,-252.7394 97.557,-95 111.1216,-73.1993 134.3105,-58.443 158.0958,-48.5514"/>
<ellipse fill="none" stroke="#84d68a" cx="139.6816" cy="-544.6978" rx="4" ry="4"/>
<polygon fill="#84d68a" stroke="#84d68a" points="158.2579,-48.4884 169.209,-49.0585 162.9181,-46.6764 167.5782,-44.8644 167.5782,-44.8644 167.5782,-44.8644 162.9181,-46.6764 165.9473,-40.6703 158.2579,-48.4884 158.2579,-48.4884"/>
</g>
<!-- User&#45;&gt;UserProject -->
<g id="edge16" class="edge">
<title>User&#45;&gt;UserProject</title>
<path fill="none" stroke="#0bd9a5" d="M234.8306,-541.275C239.3358,-534.075 243.8526,-527.0212 248.1805,-520.4408"/>
<ellipse fill="none" stroke="#0bd9a5" cx="232.645" cy="-544.7933" rx="4" ry="4"/>
<polygon fill="#0bd9a5" stroke="#0bd9a5" points="248.3995,-520.1122 257.6905,-514.2875 251.1729,-515.9518 253.9462,-511.7914 253.9462,-511.7914 253.9462,-511.7914 251.1729,-515.9518 250.2019,-509.2954 248.3995,-520.1122 248.3995,-520.1122"/>
</g>
<!-- UserOrganization&#45;&gt;Organization -->
<g id="edge19" class="edge">
<title>UserOrganization&#45;&gt;Organization</title>
<path fill="none" stroke="#f5e4ee" d="M245.1012,-58.5715C245.6151,-66.5611 245.9648,-75.6615 246.1501,-85.1627"/>
<polygon fill="#f5e4ee" stroke="#f5e4ee" points="242.6506,-85.2268 246.2838,-95.1791 249.6499,-85.1333 242.6506,-85.2268"/>
</g>
<!-- UserOrganization&#45;&gt;User -->
<g id="edge18" class="edge">
<title>UserOrganization&#45;&gt;User</title>
<path fill="none" stroke="#a5f354" d="M167.6766,-51.924C147.4211,-61.7076 127.6588,-75.5503 115.557,-95 17.4099,-252.7394 89.1359,-334.6781 144.557,-512 147.3741,-521.0135 150.9662,-530.1439 154.9309,-539.078"/>
<polygon fill="#a5f354" stroke="#a5f354" points="151.8179,-540.6856 159.1807,-548.304 158.1758,-537.7569 151.8179,-540.6856"/>
</g>
<!-- UserProject&#45;&gt;Project -->
<g id="edge22" class="edge">
<title>UserProject&#45;&gt;Project</title>
<path fill="none" stroke="#531c22" d="M271.8165,-453.3255C271.3111,-445.2991 270.9955,-436.2128 270.8696,-426.8625"/>
<polygon fill="#531c22" stroke="#531c22" points="274.3684,-426.629 270.8075,-416.6505 267.3685,-426.6717 274.3684,-426.629"/>
</g>
<!-- UserProject&#45;&gt;User -->
<g id="edge21" class="edge">
<title>UserProject&#45;&gt;User</title>
<path fill="none" stroke="#512b1d" d="M265.2484,-511.7914C260.6618,-520.1334 255.1677,-529.645 249.2831,-539.4829"/>
<polygon fill="#512b1d" stroke="#512b1d" points="246.1976,-537.8216 244.0242,-548.1911 252.1898,-541.4403 246.1976,-537.8216"/>
</g>
</g>
</svg>
