<?xml version="1.0" encoding="UTF-8" standalone="no"?>
<!DOCTYPE svg PUBLIC "-//W3C//DTD SVG 1.1//EN"
 "http://www.w3.org/Graphics/SVG/1.1/DTD/svg11.dtd">
<!-- Generated by graphviz version 2.40.1 (20161225.0304)
 -->
<!-- Title: models_diagram Pages: 1 -->
<svg width="583pt" height="871pt"
 viewBox="0.00 0.00 583.33 871.00" xmlns="http://www.w3.org/2000/svg" xmlns:xlink="http://www.w3.org/1999/xlink">
<g id="graph0" class="graph" transform="scale(1 1) rotate(0) translate(4 867)">
<title>models_diagram</title>
<polygon fill="transparent" stroke="transparent" points="-4,4 -4,-867 579.3335,-867 579.3335,4 -4,4"/>
<!-- ApplicationRecord -->
<g id="node1" class="node">
<title>ApplicationRecord</title>
<ellipse fill="none" stroke="#000000" cx="234.7607" cy="-845" rx="77.2916" ry="18"/>
<text text-anchor="middle" x="234.7607" y="-840.8" font-family="Times,serif" font-size="14.00" fill="#000000">ApplicationRecord</text>
</g>
<!-- Onboard -->
<g id="node2" class="node">
<title>Onboard</title>
<path fill="none" stroke="#000000" d="M122.8984,-690.5C122.8984,-690.5 346.623,-690.5 346.623,-690.5 352.623,-690.5 358.623,-696.5 358.623,-702.5 358.623,-702.5 358.623,-778.5 358.623,-778.5 358.623,-784.5 352.623,-790.5 346.623,-790.5 346.623,-790.5 122.8984,-790.5 122.8984,-790.5 116.8984,-790.5 110.8984,-784.5 110.8984,-778.5 110.8984,-778.5 110.8984,-702.5 110.8984,-702.5 110.8984,-696.5 116.8984,-690.5 122.8984,-690.5"/>
<text text-anchor="middle" x="234.7607" y="-775.3" font-family="Times,serif" font-size="14.00" fill="#000000">Onboard</text>
<polyline fill="none" stroke="#000000" points="110.8984,-768.5 358.623,-768.5 "/>
<text text-anchor="start" x="118.8984" y="-753.3" font-family="Times,serif" font-size="14.00" fill="#000000">created_at :timestamp without time zone</text>
<text text-anchor="start" x="118.8984" y="-739.3" font-family="Times,serif" font-size="14.00" fill="#000000">id :uuid</text>
<text text-anchor="start" x="118.8984" y="-725.3" font-family="Times,serif" font-size="14.00" fill="#000000">state :character varying</text>
<text text-anchor="start" x="118.8984" y="-711.3" font-family="Times,serif" font-size="14.00" fill="#000000">updated_at :timestamp without time zone</text>
<text text-anchor="start" x="118.8984" y="-697.3" font-family="Times,serif" font-size="14.00" fill="#000000">user_id :bigint</text>
</g>
<!-- ApplicationRecord&#45;&gt;Onboard -->
<g id="edge2" class="edge">
<title>ApplicationRecord&#45;&gt;Onboard</title>
<path fill="none" stroke="#000000" d="M234.7607,-826.7975C234.7607,-816.7395 234.7607,-803.7003 234.7607,-790.8178"/>
</g>
<!-- Organization -->
<g id="node3" class="node">
<title>Organization</title>
<path fill="none" stroke="#000000" d="M42.8984,-72.5C42.8984,-72.5 266.623,-72.5 266.623,-72.5 272.623,-72.5 278.623,-78.5 278.623,-84.5 278.623,-84.5 278.623,-188.5 278.623,-188.5 278.623,-194.5 272.623,-200.5 266.623,-200.5 266.623,-200.5 42.8984,-200.5 42.8984,-200.5 36.8984,-200.5 30.8984,-194.5 30.8984,-188.5 30.8984,-188.5 30.8984,-84.5 30.8984,-84.5 30.8984,-78.5 36.8984,-72.5 42.8984,-72.5"/>
<text text-anchor="middle" x="154.7607" y="-185.3" font-family="Times,serif" font-size="14.00" fill="#000000">Organization</text>
<polyline fill="none" stroke="#000000" points="30.8984,-178.5 278.623,-178.5 "/>
<text text-anchor="start" x="38.8984" y="-163.3" font-family="Times,serif" font-size="14.00" fill="#000000">active :boolean</text>
<text text-anchor="start" x="38.8984" y="-149.3" font-family="Times,serif" font-size="14.00" fill="#000000">created_at :timestamp without time zone</text>
<text text-anchor="start" x="38.8984" y="-135.3" font-family="Times,serif" font-size="14.00" fill="#000000">default :boolean</text>
<text text-anchor="start" x="38.8984" y="-121.3" font-family="Times,serif" font-size="14.00" fill="#000000">id :bigint</text>
<text text-anchor="start" x="38.8984" y="-107.3" font-family="Times,serif" font-size="14.00" fill="#000000">name :character varying</text>
<text text-anchor="start" x="38.8984" y="-93.3" font-family="Times,serif" font-size="14.00" fill="#000000">slug :character varying</text>
<text text-anchor="start" x="38.8984" y="-79.3" font-family="Times,serif" font-size="14.00" fill="#000000">updated_at :timestamp without time zone</text>
</g>
<!-- ApplicationRecord&#45;&gt;Organization -->
<g id="edge6" class="edge">
<title>ApplicationRecord&#45;&gt;Organization</title>
<path fill="none" stroke="#000000" d="M171.2006,-834.6499C122.2007,-825.3469 59.9845,-810.2046 42.7607,-791 -22.0736,-718.7096 6.7607,-672.605 6.7607,-575.5 6.7607,-575.5 6.7607,-575.5 6.7607,-431.5 6.7607,-344.8348 58.4229,-257.6015 100.7011,-200.7235"/>
</g>
<!-- OrganizationUser -->
<g id="node4" class="node">
<title>OrganizationUser</title>
<path fill="none" stroke="#000000" d="M46.9233,-402.5C46.9233,-402.5 166.5981,-402.5 166.5981,-402.5 172.5981,-402.5 178.5981,-408.5 178.5981,-414.5 178.5981,-414.5 178.5981,-448.5 178.5981,-448.5 178.5981,-454.5 172.5981,-460.5 166.5981,-460.5 166.5981,-460.5 46.9233,-460.5 46.9233,-460.5 40.9233,-460.5 34.9233,-454.5 34.9233,-448.5 34.9233,-448.5 34.9233,-414.5 34.9233,-414.5 34.9233,-408.5 40.9233,-402.5 46.9233,-402.5"/>
<text text-anchor="middle" x="106.7607" y="-445.3" font-family="Times,serif" font-size="14.00" fill="#000000">OrganizationUser</text>
<polyline fill="none" stroke="#000000" points="34.9233,-438.5 178.5981,-438.5 "/>
<text text-anchor="start" x="42.9233" y="-423.3" font-family="Times,serif" font-size="14.00" fill="#000000">organization_id :bigint</text>
<text text-anchor="start" x="42.9233" y="-409.3" font-family="Times,serif" font-size="14.00" fill="#000000">user_id :bigint</text>
</g>
<!-- ApplicationRecord&#45;&gt;OrganizationUser -->
<g id="edge9" class="edge">
<title>ApplicationRecord&#45;&gt;OrganizationUser</title>
<path fill="none" stroke="#000000" d="M178.4907,-832.4877C139.4836,-822.5422 92.5187,-807.5828 80.7607,-791 8.372,-688.9069 64.9598,-526.9129 93.1809,-460.9258"/>
</g>
<!-- Project -->
<g id="node5" class="node">
<title>Project</title>
<path fill="none" stroke="#000000" d="M235.8984,-237.5C235.8984,-237.5 459.623,-237.5 459.623,-237.5 465.623,-237.5 471.623,-243.5 471.623,-249.5 471.623,-249.5 471.623,-353.5 471.623,-353.5 471.623,-359.5 465.623,-365.5 459.623,-365.5 459.623,-365.5 235.8984,-365.5 235.8984,-365.5 229.8984,-365.5 223.8984,-359.5 223.8984,-353.5 223.8984,-353.5 223.8984,-249.5 223.8984,-249.5 223.8984,-243.5 229.8984,-237.5 235.8984,-237.5"/>
<text text-anchor="middle" x="347.7607" y="-350.3" font-family="Times,serif" font-size="14.00" fill="#000000">Project</text>
<polyline fill="none" stroke="#000000" points="223.8984,-343.5 471.623,-343.5 "/>
<text text-anchor="start" x="231.8984" y="-328.3" font-family="Times,serif" font-size="14.00" fill="#000000">created_at :timestamp without time zone</text>
<text text-anchor="start" x="231.8984" y="-314.3" font-family="Times,serif" font-size="14.00" fill="#000000">id :bigint</text>
<text text-anchor="start" x="231.8984" y="-300.3" font-family="Times,serif" font-size="14.00" fill="#000000">name :character varying</text>
<text text-anchor="start" x="231.8984" y="-286.3" font-family="Times,serif" font-size="14.00" fill="#000000">organization_id :bigint</text>
<text text-anchor="start" x="231.8984" y="-272.3" font-family="Times,serif" font-size="14.00" fill="#000000">slug :character varying</text>
<text text-anchor="start" x="231.8984" y="-258.3" font-family="Times,serif" font-size="14.00" fill="#000000">supported_language_id :bigint</text>
<text text-anchor="start" x="231.8984" y="-244.3" font-family="Times,serif" font-size="14.00" fill="#000000">updated_at :timestamp without time zone</text>
</g>
<!-- ApplicationRecord&#45;&gt;Project -->
<g id="edge14" class="edge">
<title>ApplicationRecord&#45;&gt;Project</title>
<path fill="none" stroke="#000000" d="M294.0101,-833.352C336.2618,-823.7068 387.7953,-808.7386 400.7607,-791 502.7829,-651.4191 445.5966,-569.5006 402.7607,-402 399.6315,-389.7637 394.6706,-377.4143 388.9793,-365.7608"/>
</g>
<!-- ProjectUser -->
<g id="node6" class="node">
<title>ProjectUser</title>
<path fill="none" stroke="#000000" d="M293.352,-402.5C293.352,-402.5 382.1694,-402.5 382.1694,-402.5 388.1694,-402.5 394.1694,-408.5 394.1694,-414.5 394.1694,-414.5 394.1694,-448.5 394.1694,-448.5 394.1694,-454.5 388.1694,-460.5 382.1694,-460.5 382.1694,-460.5 293.352,-460.5 293.352,-460.5 287.352,-460.5 281.352,-454.5 281.352,-448.5 281.352,-448.5 281.352,-414.5 281.352,-414.5 281.352,-408.5 287.352,-402.5 293.352,-402.5"/>
<text text-anchor="middle" x="337.7607" y="-445.3" font-family="Times,serif" font-size="14.00" fill="#000000">ProjectUser</text>
<polyline fill="none" stroke="#000000" points="281.352,-438.5 394.1694,-438.5 "/>
<text text-anchor="start" x="289.352" y="-423.3" font-family="Times,serif" font-size="14.00" fill="#000000">project_id :bigint</text>
<text text-anchor="start" x="289.352" y="-409.3" font-family="Times,serif" font-size="14.00" fill="#000000">user_id :bigint</text>
</g>
<!-- ApplicationRecord&#45;&gt;ProjectUser -->
<g id="edge17" class="edge">
<title>ApplicationRecord&#45;&gt;ProjectUser</title>
<path fill="none" stroke="#000000" d="M299.215,-834.8395C325.0115,-827.2647 352.2422,-814.0496 367.7607,-791 440.736,-682.61 395.6062,-624.6652 367.7607,-497 365.042,-484.5354 359.7272,-471.6052 354.3167,-460.5593"/>
</g>
<!-- SupportedLanguage -->
<g id="node7" class="node">
<title>SupportedLanguage</title>
<path fill="none" stroke="#000000" d="M432.188,-93.5C432.188,-93.5 563.3335,-93.5 563.3335,-93.5 569.3335,-93.5 575.3335,-99.5 575.3335,-105.5 575.3335,-105.5 575.3335,-167.5 575.3335,-167.5 575.3335,-173.5 569.3335,-179.5 563.3335,-179.5 563.3335,-179.5 432.188,-179.5 432.188,-179.5 426.188,-179.5 420.188,-173.5 420.188,-167.5 420.188,-167.5 420.188,-105.5 420.188,-105.5 420.188,-99.5 426.188,-93.5 432.188,-93.5"/>
<text text-anchor="middle" x="497.7607" y="-164.3" font-family="Times,serif" font-size="14.00" fill="#000000">SupportedLanguage</text>
<polyline fill="none" stroke="#000000" points="420.188,-157.5 575.3335,-157.5 "/>
<text text-anchor="start" x="428.188" y="-142.3" font-family="Times,serif" font-size="14.00" fill="#000000">active :boolean</text>
<text text-anchor="start" x="428.188" y="-128.3" font-family="Times,serif" font-size="14.00" fill="#000000">id :bigint</text>
<text text-anchor="start" x="428.188" y="-114.3" font-family="Times,serif" font-size="14.00" fill="#000000">image :character varying</text>
<text text-anchor="start" x="428.188" y="-100.3" font-family="Times,serif" font-size="14.00" fill="#000000">name :character varying</text>
</g>
<!-- ApplicationRecord&#45;&gt;SupportedLanguage -->
<g id="edge19" class="edge">
<title>ApplicationRecord&#45;&gt;SupportedLanguage</title>
<path fill="none" stroke="#000000" d="M299.3513,-835.0316C351.3817,-825.745 419.0028,-810.4234 438.7607,-791 509.7451,-721.2174 499.7607,-675.0409 499.7607,-575.5 499.7607,-575.5 499.7607,-575.5 499.7607,-431.5 499.7607,-342.1273 498.8314,-237.5277 498.2398,-179.9854"/>
</g>
<!-- User -->
<g id="node8" class="node">
<title>User</title>
<path fill="none" stroke="#000000" d="M122.8984,-497.5C122.8984,-497.5 346.623,-497.5 346.623,-497.5 352.623,-497.5 358.623,-503.5 358.623,-509.5 358.623,-509.5 358.623,-641.5 358.623,-641.5 358.623,-647.5 352.623,-653.5 346.623,-653.5 346.623,-653.5 122.8984,-653.5 122.8984,-653.5 116.8984,-653.5 110.8984,-647.5 110.8984,-641.5 110.8984,-641.5 110.8984,-509.5 110.8984,-509.5 110.8984,-503.5 116.8984,-497.5 122.8984,-497.5"/>
<text text-anchor="middle" x="234.7607" y="-638.3" font-family="Times,serif" font-size="14.00" fill="#000000">User</text>
<polyline fill="none" stroke="#000000" points="110.8984,-631.5 358.623,-631.5 "/>
<text text-anchor="start" x="118.8984" y="-616.3" font-family="Times,serif" font-size="14.00" fill="#000000">created_at :timestamp without time zone</text>
<text text-anchor="start" x="118.8984" y="-602.3" font-family="Times,serif" font-size="14.00" fill="#000000">crypted_password :character varying</text>
<text text-anchor="start" x="118.8984" y="-588.3" font-family="Times,serif" font-size="14.00" fill="#000000">email :character varying</text>
<text text-anchor="start" x="118.8984" y="-574.3" font-family="Times,serif" font-size="14.00" fill="#000000">first_name :character varying</text>
<text text-anchor="start" x="118.8984" y="-560.3" font-family="Times,serif" font-size="14.00" fill="#000000">id :bigint</text>
<text text-anchor="start" x="118.8984" y="-546.3" font-family="Times,serif" font-size="14.00" fill="#000000">last_name :character varying</text>
<text text-anchor="start" x="118.8984" y="-532.3" font-family="Times,serif" font-size="14.00" fill="#000000">salt :character varying</text>
<text text-anchor="start" x="118.8984" y="-518.3" font-family="Times,serif" font-size="14.00" fill="#000000">terms :boolean</text>
<text text-anchor="start" x="118.8984" y="-504.3" font-family="Times,serif" font-size="14.00" fill="#000000">updated_at :timestamp without time zone</text>
</g>
<!-- ApplicationRecord&#45;&gt;User -->
<g id="edge23" class="edge">
<title>ApplicationRecord&#45;&gt;User</title>
<path fill="none" stroke="#000000" d="M170.3065,-834.8395C144.5099,-827.2647 117.2792,-814.0496 101.7607,-791 76.691,-753.764 83.0477,-730.8024 101.7607,-690 107.7304,-676.9836 115.991,-664.8872 125.5003,-653.8118"/>
</g>
<!-- Onboard&#45;&gt;User -->
<g id="edge1" class="edge">
<title>Onboard&#45;&gt;User</title>
<path fill="none" stroke="#2e5c8b" d="M228.487,-690.098C228.2251,-681.6973 228.0712,-672.7706 228.0253,-663.7517"/>
<polygon fill="#2e5c8b" stroke="#2e5c8b" points="231.5253,-663.5511 228.0194,-653.5531 224.5253,-663.5552 231.5253,-663.5511"/>
</g>
<!-- Organization&#45;&gt;Project -->
<g id="edge5" class="edge">
<title>Organization&#45;&gt;Project</title>
<path fill="none" stroke="#a70913" d="M242.8204,-206.0769C252.4189,-214.2025 262.1287,-222.4996 271.5686,-230.6423"/>
<ellipse fill="none" stroke="#a70913" cx="239.5885" cy="-203.3467" rx="4" ry="4"/>
<polygon fill="#a70913" stroke="#a70913" points="271.8996,-230.9286 276.5191,-240.874 275.6813,-234.1996 279.463,-237.4705 279.463,-237.4705 279.463,-237.4705 275.6813,-234.1996 282.4068,-234.067 271.8996,-230.9286 271.8996,-230.9286"/>
</g>
<!-- Organization&#45;&gt;User -->
<g id="edge4" class="edge">
<title>Organization&#45;&gt;User</title>
<path fill="none" stroke="#79d429" d="M168.3125,-210.8655C182.242,-287.3034 203.9257,-406.293 218.7064,-487.402"/>
<polygon fill="#79d429" stroke="#79d429" points="168.2774,-210.6724 170.9116,-200.0276 167.381,-205.7534 166.4845,-200.8344 166.4845,-200.8344 166.4845,-200.8344 167.381,-205.7534 162.0574,-201.6412 168.2774,-210.6724 168.2774,-210.6724"/>
<polygon fill="#79d429" stroke="#79d429" points="218.7116,-487.4307 216.0773,-498.0755 219.608,-492.3497 220.5044,-497.2687 220.5044,-497.2687 220.5044,-497.2687 219.608,-492.3497 224.9315,-496.4619 218.7116,-487.4307 218.7116,-487.4307"/>
</g>
<!-- UserOrganization -->
<g id="node9" class="node">
<title>UserOrganization</title>
<ellipse fill="none" stroke="#000000" cx="154.7607" cy="-18" rx="72.629" ry="18"/>
<text text-anchor="middle" x="154.7607" y="-13.8" font-family="Times,serif" font-size="14.00" fill="#000000">UserOrganization</text>
</g>
<!-- Organization&#45;&gt;UserOrganization -->
<g id="edge3" class="edge">
<title>Organization&#45;&gt;UserOrganization</title>
<path fill="none" stroke="#d5df2f" d="M154.7607,-64.3495C154.7607,-58.0072 154.7607,-51.8722 154.7607,-46.2546"/>
<ellipse fill="none" stroke="#d5df2f" cx="154.7608" cy="-68.3945" rx="4" ry="4"/>
<polygon fill="#d5df2f" stroke="#d5df2f" points="154.7608,-46.171 159.2607,-36.171 154.7608,-41.171 154.7607,-36.171 154.7607,-36.171 154.7607,-36.171 154.7608,-41.171 150.2607,-36.1711 154.7608,-46.171 154.7608,-46.171"/>
</g>
<!-- OrganizationUser&#45;&gt;Organization -->
<g id="edge7" class="edge">
<title>OrganizationUser&#45;&gt;Organization</title>
<path fill="none" stroke="#dce0e3" d="M111.4945,-402.4069C118.6751,-358.276 132.5528,-272.9862 142.6605,-210.8659"/>
<polygon fill="#dce0e3" stroke="#dce0e3" points="146.1602,-211.15 144.3117,-200.7177 139.2511,-210.0258 146.1602,-211.15"/>
</g>
<!-- OrganizationUser&#45;&gt;User -->
<g id="edge8" class="edge">
<title>OrganizationUser&#45;&gt;User</title>
<path fill="none" stroke="#34552b" d="M138.1462,-460.5715C146.4033,-469.2339 155.628,-479.2021 165.0159,-489.571"/>
<polygon fill="#34552b" stroke="#34552b" points="162.5756,-492.0915 171.869,-497.1791 167.7767,-487.4065 162.5756,-492.0915"/>
</g>
<!-- Project&#45;&gt;Organization -->
<g id="edge10" class="edge">
<title>Project&#45;&gt;Organization</title>
<path fill="none" stroke="#65b752" d="M266.2683,-237.4705C254.5421,-227.5874 242.5151,-217.3315 230.898,-207.3104"/>
<polygon fill="#65b752" stroke="#65b752" points="233.1835,-204.6597 223.3304,-200.7653 228.6044,-209.9542 233.1835,-204.6597"/>
</g>
<!-- Project&#45;&gt;SupportedLanguage -->
<g id="edge11" class="edge">
<title>Project&#45;&gt;SupportedLanguage</title>
<path fill="none" stroke="#d78853" d="M406.1841,-237.2342C421.171,-220.7487 437.0875,-203.2406 451.3743,-187.525"/>
<polygon fill="#d78853" stroke="#d78853" points="454.1088,-189.7202 458.2458,-179.9664 448.9292,-185.0115 454.1088,-189.7202"/>
</g>
<!-- Project&#45;&gt;User -->
<g id="edge13" class="edge">
<title>Project&#45;&gt;User</title>
<path fill="none" stroke="#44e529" d="M288.0472,-374.2625C282.3094,-383.2712 277.0439,-392.6203 272.7607,-402 260.6156,-428.5966 252.2542,-459.2933 246.5398,-487.4041"/>
<polygon fill="#44e529" stroke="#44e529" points="288.1651,-374.0839 297.4313,-368.2197 290.9207,-369.9118 293.6764,-365.7396 293.6764,-365.7396 293.6764,-365.7396 290.9207,-369.9118 289.9214,-363.2596 288.1651,-374.0839 288.1651,-374.0839"/>
<polygon fill="#44e529" stroke="#44e529" points="246.5382,-487.4128 240.21,-496.3684 245.5826,-492.3206 244.627,-497.2284 244.627,-497.2284 244.627,-497.2284 245.5826,-492.3206 249.0441,-498.0885 246.5382,-487.4128 246.5382,-487.4128"/>
</g>
<!-- UserProject -->
<g id="node10" class="node">
<title>UserProject</title>
<ellipse fill="none" stroke="#000000" cx="348.7607" cy="-136.5" rx="51.7088" ry="18"/>
<text text-anchor="middle" x="348.7607" y="-132.3" font-family="Times,serif" font-size="14.00" fill="#000000">UserProject</text>
</g>
<!-- Project&#45;&gt;UserProject -->
<g id="edge12" class="edge">
<title>Project&#45;&gt;UserProject</title>
<path fill="none" stroke="#2bf815" d="M348.1991,-229.1663C348.3368,-206.4471 348.4808,-182.6835 348.5885,-164.9094"/>
<ellipse fill="none" stroke="#2bf815" cx="348.1745" cy="-233.2343" rx="4" ry="4"/>
<polygon fill="#2bf815" stroke="#2bf815" points="348.5898,-164.6791 353.1504,-154.7066 348.6202,-159.6792 348.6505,-154.6793 348.6505,-154.6793 348.6505,-154.6793 348.6202,-159.6792 344.1506,-154.652 348.5898,-164.6791 348.5898,-164.6791"/>
</g>
<!-- ProjectUser&#45;&gt;Project -->
<g id="edge16" class="edge">
<title>ProjectUser&#45;&gt;Project</title>
<path fill="none" stroke="#bf7c57" d="M340.0049,-402.3255C340.6223,-394.2991 341.3213,-385.2128 342.0405,-375.8625"/>
<polygon fill="#bf7c57" stroke="#bf7c57" points="345.5487,-375.8895 342.8261,-365.6505 338.5693,-375.3526 345.5487,-375.8895"/>
</g>
<!-- ProjectUser&#45;&gt;User -->
<g id="edge15" class="edge">
<title>ProjectUser&#45;&gt;User</title>
<path fill="none" stroke="#4c014c" d="M322.5107,-460.5715C316.9814,-469.0657 310.3683,-478.8155 303.2818,-488.9675"/>
<polygon fill="#4c014c" stroke="#4c014c" points="300.3968,-486.9855 297.5087,-497.1791 306.1233,-491.0114 300.3968,-486.9855"/>
</g>
<!-- Application -->
<g id="node11" class="node">
<title>Application</title>
<ellipse fill="none" stroke="#000000" cx="497.7607" cy="-18" rx="51.7174" ry="18"/>
<text text-anchor="middle" x="497.7607" y="-13.8" font-family="Times,serif" font-size="14.00" fill="#000000">Application</text>
</g>
<!-- SupportedLanguage&#45;&gt;Application -->
<g id="edge18" class="edge">
<title>SupportedLanguage&#45;&gt;Application</title>
<path fill="none" stroke="#b79d35" d="M497.7607,-84.9378C497.7607,-71.7469 497.7607,-58.039 497.7607,-46.489"/>
<ellipse fill="none" stroke="#b79d35" cx="497.7608" cy="-89.3836" rx="4" ry="4"/>
<polygon fill="#b79d35" stroke="#b79d35" points="497.7608,-46.1639 502.2607,-36.1639 497.7608,-41.1639 497.7607,-36.1639 497.7607,-36.1639 497.7607,-36.1639 497.7608,-41.1639 493.2607,-36.164 497.7608,-46.1639 497.7608,-46.1639"/>
</g>
<!-- User&#45;&gt;Onboard -->
<g id="edge20" class="edge">
<title>User&#45;&gt;Onboard</title>
<path fill="none" stroke="#3267e7" d="M241.5048,-661.6683C241.4824,-668.5777 241.3968,-675.4527 241.248,-682.099"/>
<ellipse fill="none" stroke="#3267e7" cx="241.5034" cy="-657.5531" rx="4" ry="4"/>
<ellipse fill="#3267e7" stroke="#3267e7" cx="241.1412" cy="-686.0994" rx="4" ry="4"/>
</g>
<!-- User&#45;&gt;OrganizationUser -->
<g id="edge21" class="edge">
<title>User&#45;&gt;OrganizationUser</title>
<path fill="none" stroke="#155b0b" d="M153.0641,-491.0838C146.208,-483.2416 139.6417,-475.6021 133.7096,-468.5527"/>
<ellipse fill="none" stroke="#155b0b" cx="155.7763" cy="-494.1732" rx="4" ry="4"/>
<polygon fill="#155b0b" stroke="#155b0b" points="133.4602,-468.2533 130.5147,-457.6904 130.259,-464.4124 127.0578,-460.5715 127.0578,-460.5715 127.0578,-460.5715 130.259,-464.4124 123.601,-463.4525 133.4602,-468.2533 133.4602,-468.2533"/>
</g>
<!-- User&#45;&gt;ProjectUser -->
<g id="edge22" class="edge">
<title>User&#45;&gt;ProjectUser</title>
<path fill="none" stroke="#1c2036" d="M288.9241,-490.4781C294.4181,-482.9587 299.873,-475.6354 305.0435,-468.851"/>
<ellipse fill="none" stroke="#1c2036" cx="286.4064" cy="-493.9431" rx="4" ry="4"/>
<polygon fill="#1c2036" stroke="#1c2036" points="305.3192,-468.4932 314.9871,-463.3179 308.3708,-464.5323 311.4223,-460.5715 311.4223,-460.5715 311.4223,-460.5715 308.3708,-464.5323 307.8576,-457.8251 305.3192,-468.4932 305.3192,-468.4932"/>
</g>
</g>
</svg>
