<?xml version="1.0" encoding="UTF-8" standalone="no"?>
<!DOCTYPE svg PUBLIC "-//W3C//DTD SVG 1.1//EN"
 "http://www.w3.org/Graphics/SVG/1.1/DTD/svg11.dtd">
<!-- Generated by graphviz version 2.40.1 (20161225.0304)
 -->
<!-- Title: models_diagram Pages: 1 -->
<svg width="527pt" height="476pt"
 viewBox="0.00 0.00 527.33 476.00" xmlns="http://www.w3.org/2000/svg" xmlns:xlink="http://www.w3.org/1999/xlink">
<g id="graph0" class="graph" transform="scale(1 1) rotate(0) translate(4 472)">
<title>models_diagram</title>
<polygon fill="transparent" stroke="transparent" points="-4,4 -4,-472 523.3252,-472 523.3252,4 -4,4"/>
<!-- ApplicationRecord -->
<g id="node1" class="node">
<title>ApplicationRecord</title>
<ellipse fill="none" stroke="#000000" cx="243" cy="-450" rx="77.2916" ry="18"/>
<text text-anchor="middle" x="243" y="-445.8" font-family="Times,serif" font-size="14.00" fill="#000000">ApplicationRecord</text>
</g>
<!-- Onboard -->
<g id="node2" class="node">
<title>Onboard</title>
<ellipse fill="none" stroke="#000000" cx="243" cy="-378" rx="41.1007" ry="18"/>
<text text-anchor="middle" x="243" y="-373.8" font-family="Times,serif" font-size="14.00" fill="#000000">Onboard</text>
</g>
<!-- ApplicationRecord&#45;&gt;Onboard -->
<g id="edge2" class="edge">
<title>ApplicationRecord&#45;&gt;Onboard</title>
<path fill="none" stroke="#000000" d="M243,-431.8314C243,-421 243,-407.2876 243,-396.4133"/>
</g>
<!-- Organization -->
<g id="node3" class="node">
<title>Organization</title>
<ellipse fill="none" stroke="#000000" cx="161" cy="-90" rx="56.2326" ry="18"/>
<text text-anchor="middle" x="161" y="-85.8" font-family="Times,serif" font-size="14.00" fill="#000000">Organization</text>
</g>
<!-- ApplicationRecord&#45;&gt;Organization -->
<g id="edge6" class="edge">
<title>ApplicationRecord&#45;&gt;Organization</title>
<path fill="none" stroke="#000000" d="M177.8805,-440.1254C105.9009,-425.0854 0,-388.8752 0,-306 0,-306 0,-306 0,-234 0,-167.6243 76.9649,-124.1956 124.4666,-103.7129"/>
</g>
<!-- OrganizationUser -->
<g id="node4" class="node">
<title>OrganizationUser</title>
<ellipse fill="none" stroke="#000000" cx="101" cy="-234" rx="72.629" ry="18"/>
<text text-anchor="middle" x="101" y="-229.8" font-family="Times,serif" font-size="14.00" fill="#000000">OrganizationUser</text>
</g>
<!-- ApplicationRecord&#45;&gt;OrganizationUser -->
<g id="edge9" class="edge">
<title>ApplicationRecord&#45;&gt;OrganizationUser</title>
<path fill="none" stroke="#000000" d="M220.4458,-432.6548C208.6102,-422.7883 194.4414,-409.691 184,-396 147.9723,-348.7596 120.0978,-283.5359 107.8315,-252.2189"/>
</g>
<!-- Project -->
<g id="node5" class="node">
<title>Project</title>
<ellipse fill="none" stroke="#000000" cx="287" cy="-162" rx="35.3129" ry="18"/>
<text text-anchor="middle" x="287" y="-157.8" font-family="Times,serif" font-size="14.00" fill="#000000">Project</text>
</g>
<!-- ApplicationRecord&#45;&gt;Project -->
<g id="edge14" class="edge">
<title>ApplicationRecord&#45;&gt;Project</title>
<path fill="none" stroke="#000000" d="M270.8116,-433.0956C284.8148,-423.5382 301.2628,-410.5903 313,-396 357.3636,-340.8525 365.5136,-321.062 381,-252 384.5009,-236.3877 389.015,-229.8477 381,-216 367.5181,-192.7068 339.7674,-178.5871 317.8957,-170.6604"/>
</g>
<!-- ProjectUser -->
<g id="node6" class="node">
<title>ProjectUser</title>
<ellipse fill="none" stroke="#000000" cx="320" cy="-234" rx="51.7088" ry="18"/>
<text text-anchor="middle" x="320" y="-229.8" font-family="Times,serif" font-size="14.00" fill="#000000">ProjectUser</text>
</g>
<!-- ApplicationRecord&#45;&gt;ProjectUser -->
<g id="edge17" class="edge">
<title>ApplicationRecord&#45;&gt;ProjectUser</title>
<path fill="none" stroke="#000000" d="M264.1139,-432.6058C274.4578,-422.9145 286.1352,-409.9944 293,-396 316.6077,-347.8741 320.1029,-283.0654 320.294,-252.0314"/>
</g>
<!-- SupportedLanguage -->
<g id="node7" class="node">
<title>SupportedLanguage</title>
<ellipse fill="none" stroke="#000000" cx="438" cy="-90" rx="81.1508" ry="18"/>
<text text-anchor="middle" x="438" y="-85.8" font-family="Times,serif" font-size="14.00" fill="#000000">SupportedLanguage</text>
</g>
<!-- ApplicationRecord&#45;&gt;SupportedLanguage -->
<g id="edge19" class="edge">
<title>ApplicationRecord&#45;&gt;SupportedLanguage</title>
<path fill="none" stroke="#000000" d="M294.234,-436.3877C352.0091,-417.5694 438,-377.5436 438,-306 438,-306 438,-306 438,-234 438,-188.75 438,-135.5017 438,-108.1854"/>
</g>
<!-- User -->
<g id="node8" class="node">
<title>User</title>
<ellipse fill="none" stroke="#000000" cx="240" cy="-306" rx="27" ry="18"/>
<text text-anchor="middle" x="240" y="-301.8" font-family="Times,serif" font-size="14.00" fill="#000000">User</text>
</g>
<!-- ApplicationRecord&#45;&gt;User -->
<g id="edge23" class="edge">
<title>ApplicationRecord&#45;&gt;User</title>
<path fill="none" stroke="#000000" d="M220.3956,-432.5584C209.9299,-423.0325 198.594,-410.2751 193,-396 187.1623,-381.103 187.3921,-374.985 193,-360 198.9244,-344.1693 211.8188,-329.9185 222.6055,-320.0368"/>
</g>
<!-- Onboard&#45;&gt;User -->
<g id="edge1" class="edge">
<title>Onboard&#45;&gt;User</title>
<path fill="none" stroke="#dd0bdc" d="M236.3427,-360.2022C235.2248,-352.3271 234.6019,-342.875 234.5674,-334.0852"/>
<polygon fill="#dd0bdc" stroke="#dd0bdc" points="238.0723,-333.9269 234.8232,-323.8425 231.0745,-333.752 238.0723,-333.9269"/>
</g>
<!-- Organization&#45;&gt;Project -->
<g id="edge5" class="edge">
<title>Organization&#45;&gt;Project</title>
<path fill="none" stroke="#51fef0" d="M200.0666,-108.8837C218.7927,-119.0489 240.7695,-131.5872 258,-141.9288"/>
<ellipse fill="none" stroke="#51fef0" cx="196.322" cy="-106.8678" rx="4" ry="4"/>
<polygon fill="#51fef0" stroke="#51fef0" points="258.2223,-142.0638 264.4323,-151.1019 262.4955,-144.6599 266.7688,-147.256 266.7688,-147.256 266.7688,-147.256 262.4955,-144.6599 269.1052,-143.4101 258.2223,-142.0638 258.2223,-142.0638"/>
</g>
<!-- Organization&#45;&gt;User -->
<g id="edge4" class="edge">
<title>Organization&#45;&gt;User</title>
<path fill="none" stroke="#936787" d="M171.018,-117.391C186.1931,-158.8825 214.8412,-237.2113 230.0035,-278.6679"/>
<polygon fill="#936787" stroke="#936787" points="170.9892,-117.312 171.7804,-106.3747 169.2717,-112.6162 167.5542,-107.9204 167.5542,-107.9204 167.5542,-107.9204 169.2717,-112.6162 163.328,-109.4662 170.9892,-117.312 170.9892,-117.312"/>
<polygon fill="#936787" stroke="#936787" points="230.1002,-278.9322 229.3089,-289.8695 231.8176,-283.628 233.5351,-288.3238 233.5351,-288.3238 233.5351,-288.3238 231.8176,-283.628 237.7613,-286.7781 230.1002,-278.9322 230.1002,-278.9322"/>
</g>
<!-- UserOrganization -->
<g id="node9" class="node">
<title>UserOrganization</title>
<ellipse fill="none" stroke="#000000" cx="161" cy="-18" rx="72.629" ry="18"/>
<text text-anchor="middle" x="161" y="-13.8" font-family="Times,serif" font-size="14.00" fill="#000000">UserOrganization</text>
</g>
<!-- Organization&#45;&gt;UserOrganization -->
<g id="edge3" class="edge">
<title>Organization&#45;&gt;UserOrganization</title>
<path fill="none" stroke="#290703" d="M161,-63.8144C161,-58.2775 161,-52.4053 161,-46.7785"/>
<ellipse fill="none" stroke="#290703" cx="161" cy="-67.8314" rx="4" ry="4"/>
<polygon fill="#290703" stroke="#290703" points="161.0001,-46.4133 165.5,-36.4132 161,-41.4133 161,-36.4133 161,-36.4133 161,-36.4133 161,-41.4133 156.5,-36.4133 161.0001,-46.4133 161.0001,-46.4133"/>
</g>
<!-- OrganizationUser&#45;&gt;Organization -->
<g id="edge7" class="edge">
<title>OrganizationUser&#45;&gt;Organization</title>
<path fill="none" stroke="#b39115" d="M108.4777,-216.0535C118.7627,-191.3696 137.3704,-146.7111 149.4514,-117.7167"/>
<polygon fill="#b39115" stroke="#b39115" points="152.8126,-118.7497 153.428,-108.1727 146.3511,-116.0573 152.8126,-118.7497"/>
</g>
<!-- OrganizationUser&#45;&gt;User -->
<g id="edge8" class="edge">
<title>OrganizationUser&#45;&gt;User</title>
<path fill="none" stroke="#3b4191" d="M137.0362,-249.719C160.3475,-261.1009 190.1428,-276.4973 211.7527,-288.3096"/>
<polygon fill="#3b4191" stroke="#3b4191" points="210.3165,-291.515 220.761,-293.2936 213.7053,-285.3899 210.3165,-291.515"/>
</g>
<!-- Project&#45;&gt;Organization -->
<g id="edge10" class="edge">
<title>Project&#45;&gt;Organization</title>
<path fill="none" stroke="#fe2e29" d="M260.7187,-149.9488C240.9547,-139.5804 213.9642,-124.3614 192.9781,-111.8524"/>
<polygon fill="#fe2e29" stroke="#fe2e29" points="194.7623,-108.8412 184.3903,-106.6794 191.1503,-114.8374 194.7623,-108.8412"/>
</g>
<!-- Project&#45;&gt;SupportedLanguage -->
<g id="edge11" class="edge">
<title>Project&#45;&gt;SupportedLanguage</title>
<path fill="none" stroke="#6e69b8" d="M312.9578,-149.6228C335.3603,-138.9408 368.1818,-123.2908 394.5776,-110.7047"/>
<polygon fill="#6e69b8" stroke="#6e69b8" points="396.0985,-113.8571 403.6185,-106.3939 393.0856,-107.5386 396.0985,-113.8571"/>
</g>
<!-- Project&#45;&gt;User -->
<g id="edge13" class="edge">
<title>Project&#45;&gt;User</title>
<path fill="none" stroke="#4bf49b" d="M271.5661,-188.2748C267.0028,-196.8885 262.3404,-206.6522 259,-216 251.7676,-236.2391 246.8884,-260.0727 243.887,-278.1275"/>
<polygon fill="#4bf49b" stroke="#4bf49b" points="271.5971,-188.2182 280.3557,-181.6198 274.0043,-183.8357 276.4115,-179.4533 276.4115,-179.4533 276.4115,-179.4533 274.0043,-183.8357 272.4673,-177.2868 271.5971,-188.2182 271.5971,-188.2182"/>
<polygon fill="#4bf49b" stroke="#4bf49b" points="243.8851,-278.1404 237.8877,-287.3209 243.1091,-283.0798 242.3332,-288.0192 242.3332,-288.0192 242.3332,-288.0192 243.1091,-283.0798 246.7787,-288.7176 243.8851,-278.1404 243.8851,-278.1404"/>
</g>
<!-- UserProject -->
<g id="node10" class="node">
<title>UserProject</title>
<ellipse fill="none" stroke="#000000" cx="287" cy="-90" rx="51.7088" ry="18"/>
<text text-anchor="middle" x="287" y="-85.8" font-family="Times,serif" font-size="14.00" fill="#000000">UserProject</text>
</g>
<!-- Project&#45;&gt;UserProject -->
<g id="edge12" class="edge">
<title>Project&#45;&gt;UserProject</title>
<path fill="none" stroke="#2715ec" d="M287,-135.8144C287,-130.2775 287,-124.4053 287,-118.7785"/>
<ellipse fill="none" stroke="#2715ec" cx="287" cy="-139.8314" rx="4" ry="4"/>
<polygon fill="#2715ec" stroke="#2715ec" points="287.0001,-118.4133 291.5,-108.4132 287,-113.4133 287,-108.4133 287,-108.4133 287,-108.4133 287,-113.4133 282.5,-108.4133 287.0001,-118.4133 287.0001,-118.4133"/>
</g>
<!-- ProjectUser&#45;&gt;Project -->
<g id="edge16" class="edge">
<title>ProjectUser&#45;&gt;Project</title>
<path fill="none" stroke="#04e688" d="M311.8427,-216.2022C308.0463,-207.9192 303.4503,-197.8915 299.2489,-188.7248"/>
<polygon fill="#04e688" stroke="#04e688" points="302.4118,-187.2254 295.0635,-179.593 296.0483,-190.142 302.4118,-187.2254"/>
</g>
<!-- ProjectUser&#45;&gt;User -->
<g id="edge15" class="edge">
<title>ProjectUser&#45;&gt;User</title>
<path fill="none" stroke="#8f637a" d="M306.3109,-251.629C295.5794,-262.2594 280.5764,-275.8093 267.4749,-286.7229"/>
<polygon fill="#8f637a" stroke="#8f637a" points="265.1575,-284.0964 259.6183,-293.1278 269.5806,-289.5219 265.1575,-284.0964"/>
</g>
<!-- Application -->
<g id="node11" class="node">
<title>Application</title>
<ellipse fill="none" stroke="#000000" cx="438" cy="-18" rx="51.7174" ry="18"/>
<text text-anchor="middle" x="438" y="-13.8" font-family="Times,serif" font-size="14.00" fill="#000000">Application</text>
</g>
<!-- SupportedLanguage&#45;&gt;Application -->
<g id="edge18" class="edge">
<title>SupportedLanguage&#45;&gt;Application</title>
<path fill="none" stroke="#e5f1a2" d="M438,-63.8144C438,-58.2775 438,-52.4053 438,-46.7785"/>
<ellipse fill="none" stroke="#e5f1a2" cx="438" cy="-67.8314" rx="4" ry="4"/>
<polygon fill="#e5f1a2" stroke="#e5f1a2" points="438.0001,-46.4133 442.5,-36.4132 438,-41.4133 438,-36.4133 438,-36.4133 438,-36.4133 438,-41.4133 433.5,-36.4133 438.0001,-46.4133 438.0001,-46.4133"/>
</g>
<!-- User&#45;&gt;Onboard -->
<g id="edge20" class="edge">
<title>User&#45;&gt;Onboard</title>
<path fill="none" stroke="#be2324" d="M247.6152,-332.2102C248.1804,-338.5542 248.4647,-345.3372 248.4316,-351.686"/>
<ellipse fill="none" stroke="#be2324" cx="247.1247" cy="-327.8879" rx="4" ry="4"/>
<ellipse fill="#be2324" stroke="#be2324" cx="248.3114" cy="-355.833" rx="4" ry="4"/>
</g>
<!-- User&#45;&gt;OrganizationUser -->
<g id="edge21" class="edge">
<title>User&#45;&gt;OrganizationUser</title>
<path fill="none" stroke="#326c5f" d="M209.4925,-292.9635C187.9318,-282.5728 159.1116,-267.8012 136.5341,-255.6427"/>
<ellipse fill="none" stroke="#326c5f" cx="213.1713" cy="-294.7174" rx="4" ry="4"/>
<polygon fill="#326c5f" stroke="#326c5f" points="136.3796,-255.5587 129.7414,-246.8303 131.9862,-253.1715 127.5929,-250.7843 127.5929,-250.7843 127.5929,-250.7843 131.9862,-253.1715 125.4444,-254.7382 136.3796,-255.5587 136.3796,-255.5587"/>
</g>
<!-- User&#45;&gt;ProjectUser -->
<g id="edge22" class="edge">
<title>User&#45;&gt;ProjectUser</title>
<path fill="none" stroke="#0cebce" d="M258.3026,-283.8728C267.2054,-275.3164 278.0664,-265.5257 288.2223,-256.8977"/>
<ellipse fill="none" stroke="#0cebce" cx="255.2499" cy="-286.863" rx="4" ry="4"/>
<polygon fill="#0cebce" stroke="#0cebce" points="288.4854,-256.6782 299.0473,-253.7291 292.3252,-253.4758 296.1651,-250.2733 296.1651,-250.2733 296.1651,-250.2733 292.3252,-253.4758 293.2828,-246.8174 288.4854,-256.6782 288.4854,-256.6782"/>
</g>
</g>
</svg>
